<?xml version="1.0" encoding="utf-8"?>
<!-- Generator: Adobe Illustrator 16.0.0, SVG Export Plug-In . SVG Version: 6.00 Build 0)  -->
<!DOCTYPE svg PUBLIC "-//W3C//DTD SVG 1.1//EN" "http://www.w3.org/Graphics/SVG/1.1/DTD/svg11.dtd">
<svg version="1.1" id="Layer_8" xmlns="http://www.w3.org/2000/svg" xmlns:xlink="http://www.w3.org/1999/xlink" x="0px" y="0px"
	 width="105px" height="105px" viewBox="0 0 105 105" enable-background="new 0 0 105 105" xml:space="preserve">
<g>
	<path fill="#CC3333" d="M26.437,21.369c-0.351,0-0.708,0.08-1.042,0.247v0.001c-0.81,0.409-1.279,1.229-1.278,2.078
		c0,0.352,0.081,0.711,0.249,1.046l0.001,0.002l-0.001-0.003c0.407,0.812,1.227,1.281,2.074,1.28c0.352,0,0.71-0.081,1.044-0.25
		h-0.001c0.809-0.409,1.28-1.228,1.279-2.078c0-0.352-0.082-0.712-0.25-1.046C28.103,21.836,27.284,21.368,26.437,21.369z
		 M26.995,24.799L26.995,24.799c-0.18,0.091-0.369,0.133-0.556,0.133c-0.452-0.001-0.887-0.248-1.104-0.681l0,0
		c-0.09-0.18-0.133-0.369-0.133-0.556c0-0.453,0.248-0.889,0.68-1.106l-0.001,0.001c0.18-0.091,0.369-0.133,0.555-0.133
		c0.453,0.001,0.888,0.248,1.104,0.68c0.092,0.181,0.133,0.369,0.134,0.556C27.674,24.147,27.426,24.582,26.995,24.799z"/>
	<path fill="#CC3333" d="M70.922,28.81l3.189-10.222c0.057-0.184,0.012-0.383-0.114-0.526c-0.129-0.144-0.324-0.208-0.511-0.17
		l-22.191,4.422c-0.077,0.016-0.133,0.069-0.193,0.113l-0.194-0.062L43.97,43.978l-14.469-28.77L17.809,21.11L38.26,61.773
		l-6.738,20.998l20.644,6.646l0.052,0.104l0.106-0.054l19.66,6.328l0.168-0.517L91.37,35.39L70.922,28.81z M72.802,19.138
		l-2.843,9.115l-16.396-5.281L72.802,19.138z M38.053,52.928l-2.413,1.218l-1.542-3.065l5.091-2.57l-0.486-0.972l-5.095,2.57
		l-1.542-3.066l2.413-1.218l-0.489-0.972l-2.413,1.218l-1.542-3.065l5.095-2.57l-0.489-0.972l-5.095,2.571l-1.542-3.067l2.413-1.218
		l-0.489-0.972l-2.412,1.218l-1.542-3.065l5.093-2.572l-0.489-0.972l-5.093,2.571l-6.219-12.365l9.754-4.924l14.477,28.786
		l-3.75,11.68l-2.078,1.051l-1.542-3.064l2.414-1.221L38.053,52.928z M38.16,59.154l1.123-0.566l-0.549,1.71L38.16,59.154z
		 M71.283,94.434l-17.575-5.658l-2.229-0.721L32.888,82.07l6.069-18.912l0.474-1.477l1.213-3.779l0.467-1.454l3.083-9.609
		l0.474-1.476l6.941-21.63l38.393,12.366L71.283,94.434z"/>
	<path fill="#CC3333" d="M59.791,34.77l-2.729,8.506l17.142,5.519l0.168-0.518l2.563-7.987L59.791,34.77z M73.504,47.426
		l-15.076-4.853l2.063-6.435l15.077,4.855L73.504,47.426z"/>
	<path fill="#CC3333" d="M52.501,0.117c-28.809,0-52.16,23.393-52.161,52.25c0.001,28.857,23.353,52.25,52.161,52.25
		c28.808,0,52.159-23.393,52.159-52.25S81.309,0.118,52.501,0.117z M88.357,88.287c-9.183,9.195-21.854,14.88-35.856,14.88
		c-14.007,0-26.68-5.685-35.859-14.88C7.464,79.096,1.789,66.398,1.789,52.367c0-14.03,5.675-26.725,14.853-35.92
		C25.821,7.253,38.494,1.568,52.501,1.568c14.005,0,26.679,5.685,35.856,14.879c9.181,9.195,14.854,21.89,14.854,35.92
		C103.212,66.396,97.538,79.096,88.357,88.287z"/>
</g>
</svg>
