<?xml version="1.0" encoding="utf-8"?>
<!-- Generator: Adobe Illustrator 16.0.0, SVG Export Plug-In . SVG Version: 6.00 Build 0)  -->
<!DOCTYPE svg PUBLIC "-//W3C//DTD SVG 1.1//EN" "http://www.w3.org/Graphics/SVG/1.1/DTD/svg11.dtd">
<svg version="1.1" id="Layer_1" xmlns="http://www.w3.org/2000/svg" xmlns:xlink="http://www.w3.org/1999/xlink" x="0px" y="0px"
	 width="71.029px" height="71.029px" viewBox="0 0 71.029 71.029" enable-background="new 0 0 71.029 71.029" xml:space="preserve">
<g>
	<polyline fill="#CC3333" points="11.217,40.535 24.003,27.754 23.313,27.065 10.528,39.847 	"/>
	<polygon fill="#CC3333" points="15.775,27.896 23.171,27.896 23.171,34.6 24.146,34.6 24.146,26.922 15.775,26.922 	"/>
	<polyline fill="#CC3333" points="20.932,50.224 53.147,18.058 52.457,17.369 20.243,49.535 	"/>
	<polygon fill="#CC3333" points="44.922,18.2 52.315,18.2 52.315,24.894 53.291,24.894 53.291,17.226 44.922,17.226 	"/>
	<polyline fill="#CC3333" points="31.043,60.337 52.745,39.007 52.062,38.312 30.359,59.643 	"/>
	<polygon fill="#CC3333" points="44.521,39.146 51.916,39.146 51.916,45.862 52.891,45.862 52.891,38.174 44.521,38.174 	"/>
	<path fill="#CC3333" d="M0.848,35.302h0.488c0-9.418,3.821-17.941,10-24.114C17.517,5.016,26.049,1.2,35.48,1.199
		c9.431,0,17.962,3.816,24.143,9.988c6.18,6.173,10.002,14.695,10.002,24.114c0,9.417-3.822,17.941-10.002,24.114
		c-6.181,6.172-14.712,9.987-24.143,9.987c-9.43,0-17.963-3.815-24.144-9.987c-6.181-6.173-10-14.696-10-24.114H0.848H0.361
		c0,19.372,15.723,35.076,35.119,35.076c19.395,0,35.119-15.704,35.119-35.076S54.874,0.226,35.48,0.226
		c-19.396,0-35.119,15.705-35.119,35.077l0,0L0.848,35.302L0.848,35.302z"/>
</g>
</svg>
