<?xml version="1.0" encoding="utf-8"?>
<!-- Generator: Adobe Illustrator 16.0.0, SVG Export Plug-In . SVG Version: 6.00 Build 0)  -->
<!DOCTYPE svg PUBLIC "-//W3C//DTD SVG 1.1//EN" "http://www.w3.org/Graphics/SVG/1.1/DTD/svg11.dtd">
<svg version="1.1" id="ICON-3" xmlns="http://www.w3.org/2000/svg" xmlns:xlink="http://www.w3.org/1999/xlink" x="0px" y="0px"
	 width="105px" height="105px" viewBox="0 0 105 105" enable-background="new 0 0 105 105" xml:space="preserve">
<g>
	<path fill="#CC3333" d="M52.56,0.254c-28.854,0-52.244,23.391-52.245,52.245c0,28.854,23.39,52.243,52.245,52.243
		c28.854,0,52.245-23.389,52.245-52.243C104.805,23.645,81.413,0.254,52.56,0.254z M88.709,88.646
		c-9.253,9.254-22.031,14.975-36.149,14.975c-14.119,0-26.896-5.721-36.15-14.975C7.158,79.395,1.437,66.617,1.437,52.499
		c0-14.119,5.721-26.896,14.973-36.15C25.664,7.097,38.44,1.375,52.56,1.375c14.118,0,26.896,5.721,36.149,14.974
		c9.252,9.254,14.975,22.031,14.975,36.15C103.684,66.617,97.961,79.395,88.709,88.646z"/>
	<path fill="#CC3333" d="M70.977,35.333l12.033-1.737L69.159,48.589c-0.827-0.555-1.823-0.88-2.896-0.88
		c-2.678,0-4.854,2.03-5.138,4.631H44.905c-0.283-2.602-2.461-4.631-5.137-4.631c-2.866,0-5.191,2.323-5.191,5.191
		c0,1.176,0.406,2.249,1.065,3.12L14.71,75.742l0.769,0.816L36.414,56.83c0.907,0.773,2.068,1.26,3.354,1.26
		c2.676,0,4.854-2.027,5.137-4.631H61.13c0.283,2.604,2.46,4.631,5.136,4.631c2.868,0,5.192-2.32,5.192-5.192
		c0-1.392-0.556-2.649-1.446-3.582l13.924-15.069v11.465h1.121V32.169l-14.238,2.055L70.977,35.333z"/>
</g>
</svg>
