<?xml version="1.0" encoding="utf-8"?>
<!-- Generator: Adobe Illustrator 16.0.0, SVG Export Plug-In . SVG Version: 6.00 Build 0)  -->
<!DOCTYPE svg PUBLIC "-//W3C//DTD SVG 1.1//EN" "http://www.w3.org/Graphics/SVG/1.1/DTD/svg11.dtd">
<svg version="1.1" id="ICON-4" xmlns="http://www.w3.org/2000/svg" xmlns:xlink="http://www.w3.org/1999/xlink" x="0px" y="0px"
	 width="105px" height="105px" viewBox="0 0 105 105" enable-background="new 0 0 105 105" xml:space="preserve">
<g>
	<path fill="#CC3333" d="M52.561,0.248C23.702,0.249,0.311,23.642,0.31,52.497c0,28.858,23.392,52.251,52.25,52.251
		c28.857,0,52.249-23.393,52.249-52.251C104.811,23.642,81.418,0.249,52.561,0.248z M88.713,88.65
		c-9.254,9.254-22.031,14.976-36.152,14.976c-14.121,0-26.899-5.722-36.153-14.976C7.154,79.396,1.432,66.618,1.432,52.497
		c0-14.119,5.722-26.897,14.976-36.152C25.661,7.092,38.439,1.37,52.561,1.37c14.123,0,26.898,5.722,36.152,14.975
		c9.254,9.255,14.977,22.033,14.977,36.152C103.688,66.618,97.967,79.396,88.713,88.65z"/>
	<path fill="#CC3333" d="M69.486,15.111L24.923,47.58l-12.386,4.17l0.179,0.531l8.012,23.785l5.021-1.69
		c0.972,6.679,5.552,10.418,10.248,10.412c2.683,0.002,5.376-1.224,7.364-3.704c1.855-2.312,3.087-5.711,3.249-10.197l41.399-3.082
		L70.105,14.662L69.486,15.111z M21.434,74.646l-7.476-22.189l10.876-3.662l4.733,14.051l2.742,8.139L21.434,74.646z M42.487,80.382
		c-1.797,2.234-4.146,3.281-6.489,3.284c-4.125-0.008-8.299-3.281-9.167-9.652l6.302-2.123l12.353-0.92
		C45.312,75.207,44.143,78.318,42.487,80.382z M33.413,70.745L25.85,48.293l43.682-31.824l16.952,50.323L33.413,70.745z"/>
</g>
</svg>
