<?xml version="1.0" encoding="utf-8"?>
<!-- Generator: Adobe Illustrator 16.0.0, SVG Export Plug-In . SVG Version: 6.00 Build 0)  -->
<!DOCTYPE svg PUBLIC "-//W3C//DTD SVG 1.1//EN" "http://www.w3.org/Graphics/SVG/1.1/DTD/svg11.dtd">
<svg version="1.1" id="Layer_1" xmlns="http://www.w3.org/2000/svg" xmlns:xlink="http://www.w3.org/1999/xlink" x="0px" y="0px"
	 width="71.029px" height="71.029px" viewBox="0 0 71.029 71.029" enable-background="new 0 0 71.029 71.029" xml:space="preserve">
<g>
	<path fill="#CC3333" d="M17.674,52.198v0.487h17.664h17.687c2.86-0.001,5.19-2.312,5.19-5.172V39.64
		c0.002-1.91-0.698-3.633-1.863-4.951l-0.365,0.322l0.373-0.315c-0.542-0.632-3.578-4.493-4.28-9.73l0.002,0.002
		c-0.204-1.535-1.526-2.667-3.054-2.669H35.338H21.682c-1.555-0.001-2.863,1.137-3.075,2.666v0.001
		c-0.712,5.24-3.74,9.095-4.268,9.74l0.378,0.307l-0.365-0.323c-1.169,1.319-1.86,3.043-1.859,4.951v7.875v-0.003v0.03
		c0,1.42,0.577,2.711,1.515,3.64c0.935,0.93,2.234,1.505,3.667,1.505V52.198v-0.486c-2.338-0.001-4.207-1.865-4.207-4.17v-0.024
		v-0.002V39.64c0.001-1.673,0.599-3.156,1.616-4.306l0.007-0.009l0.006-0.009c0.569-0.707,3.716-4.684,4.477-10.222v0.001
		c0.146-1.047,1.038-1.825,2.109-1.826h13.656h13.688c1.038-0.001,1.95,0.782,2.086,1.822v0.001l0,0
		c0.754,5.541,3.896,9.511,4.501,10.23l0.005,0.004l0.004,0.004c1.014,1.15,1.617,2.636,1.62,4.307v7.875
		c0,1.16-0.474,2.206-1.238,2.968c-0.766,0.762-1.816,1.229-2.979,1.229H35.338H17.674V52.198z"/>
	<path fill="#CC3333" d="M13.274,33.304c2.723-3.042,3.928-7.146,4.484-10.079l0.001-0.004v-0.004
		c0.244-1.419,1.488-2.436,2.977-2.438h13.847h15.391c1.457,0.001,2.719,1.021,2.966,2.44v0.001v0.003
		c0.544,2.936,1.75,7.039,4.464,10.081c0.18,0.201,0.486,0.217,0.688,0.039c0.2-0.18,0.218-0.487,0.039-0.688
		c-2.521-2.812-3.712-6.768-4.231-9.607v0.004c-0.334-1.903-2.012-3.248-3.926-3.247h-15.39H20.737
		c-1.938-0.002-3.61,1.345-3.937,3.248l0.479,0.083l-0.479-0.09c-0.535,2.842-1.724,6.796-4.254,9.608
		c-0.179,0.201-0.162,0.509,0.039,0.688C12.787,33.521,13.094,33.504,13.274,33.304z"/>
	<path fill="#CC3333" d="M33.324,14.837h-0.488c-0.001,0.989-0.787,1.771-1.756,1.772c-0.982-0.001-1.77-0.785-1.771-1.772
		c0.002-0.953,0.79-1.75,1.771-1.751c0.484,0,0.921,0.197,1.24,0.517c0.319,0.321,0.516,0.756,0.516,1.235L33.324,14.837
		l0.487,0.001c-0.002-1.495-1.219-2.723-2.73-2.727c-1.521,0.001-2.744,1.229-2.746,2.727c0,0.759,0.306,1.449,0.803,1.943
		c0.496,0.496,1.185,0.804,1.943,0.804c0.753,0,1.439-0.309,1.932-0.806c0.494-0.493,0.8-1.184,0.799-1.941L33.324,14.837
		L33.324,14.837z"/>
	<path fill="#CC3333" d="M39.723,14.837h-0.488c-0.002,0.986-0.799,1.771-1.752,1.772c-1.005-0.002-1.792-0.788-1.793-1.772
		c0.002-0.95,0.791-1.75,1.793-1.751c0.478,0,0.914,0.197,1.233,0.517c0.322,0.321,0.519,0.757,0.519,1.234H39.723h0.488
		c-0.004-1.499-1.229-2.722-2.729-2.727c-1.535,0-2.768,1.227-2.769,2.727c0,0.759,0.309,1.45,0.809,1.945
		c0.5,0.496,1.196,0.802,1.96,0.802c1.498-0.001,2.728-1.226,2.729-2.747H39.723z"/>
	<path fill="#CC3333" d="M38.147,44.173c-0.607,0.409-1.625,0.819-2.915,0.819c-1.584,0-2.992-0.606-3.97-1.737
		c-0.742-0.82-1.231-1.954-1.407-3.36h-1.212v-0.956h1.115c0-0.098,0-0.194,0-0.293c0-0.312,0.019-0.604,0.039-0.879h-1.154v-0.976
		h1.291c0.235-1.368,0.822-2.501,1.604-3.301c0.997-1.035,2.269-1.621,3.871-1.621c1.152,0,2.053,0.332,2.602,0.625l-0.393,1.289
		c-0.487-0.293-1.31-0.548-2.188-0.548c-1.057,0-1.917,0.371-2.582,1.074c-0.586,0.566-0.978,1.446-1.173,2.481h5.455v0.976h-5.631
		c-0.021,0.254-0.04,0.547-0.04,0.82c0,0.117,0,0.215,0,0.352h5.671v0.956h-5.533c0.156,1.133,0.547,1.974,1.075,2.561
		c0.723,0.761,1.701,1.133,2.758,1.133c1.036,0,1.935-0.393,2.384-0.646L38.147,44.173z"/>
	<path fill="#CC3333" d="M0.848,35.302h0.488c0-9.418,3.821-17.941,10-24.113C17.517,5.017,26.049,1.2,35.48,1.2
		s17.962,3.816,24.143,9.988c6.18,6.172,10.002,14.695,10.002,24.113c0,9.419-3.822,17.941-10.002,24.114
		c-6.181,6.172-14.712,9.987-24.143,9.987s-17.963-3.815-24.144-9.987c-6.181-6.173-10-14.695-10-24.114H0.848H0.361
		c0,19.374,15.723,35.076,35.119,35.076c19.395,0,35.119-15.702,35.119-35.076c0-19.371-15.725-35.076-35.119-35.076
		c-19.396,0-35.119,15.705-35.119,35.076H0.848z"/>
</g>
</svg>
