<?xml version="1.0" encoding="utf-8"?>
<!-- Generator: Adobe Illustrator 16.0.0, SVG Export Plug-In . SVG Version: 6.00 Build 0)  -->
<!DOCTYPE svg PUBLIC "-//W3C//DTD SVG 1.1//EN" "http://www.w3.org/Graphics/SVG/1.1/DTD/svg11.dtd">
<svg version="1.1" id="Layer_5" xmlns="http://www.w3.org/2000/svg" xmlns:xlink="http://www.w3.org/1999/xlink" x="0px" y="0px"
	 width="105px" height="105px" viewBox="0 0 105 105" enable-background="new 0 0 105 105" xml:space="preserve">
<g>
	<path fill="#663399" d="M52.56,0.127C23.635,0.128,0.188,23.573,0.188,52.498c0,28.924,23.447,52.369,52.372,52.371
		c28.924-0.002,52.372-23.447,52.372-52.371C104.932,23.573,81.482,0.128,52.56,0.127z M88.779,88.719
		c-9.271,9.271-22.073,15.002-36.22,15.002s-26.949-5.731-36.22-15.002C7.069,79.447,1.336,66.645,1.336,52.498
		c0-14.147,5.732-26.949,15.003-36.22C25.611,7.008,38.413,1.275,52.56,1.275s26.948,5.733,36.219,15.003
		c9.271,9.271,15.004,22.073,15.004,36.22C103.783,66.645,98.05,79.447,88.779,88.719z"/>
	<path fill="#663399" d="M89.24,31.592l-5.025-5.671l-0.001-0.165l-10.834,0.04L36.227,17.07l-0.078-0.129L13.933,30.485h-0.139
		v1.106h-0.009v1.073h0.823l-0.007,2.146l4.996,0.017l0.007-2.163h11.485L31.01,79.802h-0.54v3.22h0.179v0.922h-7.474v3.222H49.29
		v-3.222h-7.299v-0.922h0.151v-3.22h-0.49l0.082-47.137h35.237v24.196v0.42v0.117h0.031l2.038,2.873l-7.231,2.951h-0.064v8.316
		h15.023v-8.316h-0.031l0.019-0.047l-7.221-2.92l2.118-2.857h0.031v-0.537h-0.018V32.665h7.982v-1.073H89.24z M31.817,31.592
		l4.154-12.945v12.945H31.817z M31.881,40.966l8.386-0.076l-8.4,8.478L31.881,40.966z M40.268,50.55l-8.418,8.494l0.015-8.419
		L40.268,50.55z M40.088,60.208l-8.253,8.331l0.014-8.256L40.088,60.208z M40.088,70.137l-8.271,8.346l0.014-8.271L40.088,70.137z
		 M16.88,31.592h-2.549v-0.554h2.549V31.592z M20.133,31.592h-2.716v-0.554h2.716V31.592z M20.669,31.592v-1.09h-0.041h-0.496
		h-5.196l20.72-12.631l-4.402,13.721H20.669z M40.024,83.943h-7.407v-0.922h7.407V83.943z M40.847,79.802h-9.032v-0.176l9.048-9.129
		L40.847,79.802z M40.865,69.323l-8.753,0.079l8.769-8.851L40.865,69.323z M40.882,59.396l-8.322,0.074l8.336-8.413L40.882,59.396z
		 M40.899,49.739l-8.34,0.075l8.355-8.433L40.899,49.739z M40.916,40.079l-9.033,0.082l0.013-7.496h9.033L40.916,40.079z
		 M36.508,31.592V19.085l4.436,12.507H36.508z M41.483,31.504l-4.895-13.799l34.482,8.1L47.993,25.89l0.001,0.145L41.483,31.504z
		 M42.211,31.592l6.12-5.141l6.336,5.141H42.211z M49.147,26.422l12.528-0.046l-6.172,5.203L49.147,26.422z M56.32,31.592
		l6.082-5.128l4.891,5.128H56.32z M68.033,31.592l-4.979-5.222l10.022-0.036l-5.015,5.258H68.033z M68.807,31.592l4.797-5.029
		l3.111,5.029H68.807z M74.09,26.33l9.48-0.034l-2.773,5.296h-3.449L74.09,26.33z M81.13,32.665v24.196h-3.622V32.665H81.13z
		 M86.146,63.225H72.52l6.783-2.77L86.146,63.225z M79.279,60.148l-1.949-2.75h3.986L79.279,60.148z M81.404,31.592l2.644-5.048
		l4.476,5.048H81.404z"/>
</g>
</svg>
