<?xml version="1.0" encoding="utf-8"?>
<!-- Generator: Adobe Illustrator 16.0.0, SVG Export Plug-In . SVG Version: 6.00 Build 0)  -->
<!DOCTYPE svg PUBLIC "-//W3C//DTD SVG 1.1//EN" "http://www.w3.org/Graphics/SVG/1.1/DTD/svg11.dtd">
<svg version="1.1" id="Layer_6" xmlns="http://www.w3.org/2000/svg" xmlns:xlink="http://www.w3.org/1999/xlink" x="0px" y="0px"
	 width="105px" height="105px" viewBox="0 0 105 105" enable-background="new 0 0 105 105" xml:space="preserve">
<g>
	<path fill="#663399" d="M52.501,0.218c-28.808,0-52.161,23.353-52.162,52.161C0.34,81.186,23.693,104.54,52.501,104.54
		c28.808,0,52.159-23.354,52.159-52.161C104.66,23.571,81.311,0.218,52.501,0.218z M88.366,88.245
		C79.186,97.425,66.51,103.1,52.501,103.1s-26.686-5.676-35.867-14.854C7.455,79.062,1.778,66.387,1.778,52.378
		s5.676-26.685,14.856-35.866c9.182-9.18,21.858-14.856,35.867-14.856c14.008,0,26.685,5.676,35.865,14.856
		c9.18,9.182,14.854,21.857,14.854,35.866C103.223,66.387,97.546,79.062,88.366,88.245z"/>
	<path fill="#663399" d="M71.768,21.184c2.108-0.179,4.096-1.34,5.633-2.481c0.771-0.574,1.423-1.148,1.906-1.613
		c0.242-0.232,0.441-0.438,0.596-0.604c0.158-0.173,0.255-0.28,0.346-0.412l0.002-0.002v-0.001c0.109-0.179,0.271-0.414,0.282-0.816
		c0.006-0.236-0.095-0.522-0.274-0.716c-0.271-0.294-0.6-0.414-0.992-0.504c-0.4-0.086-0.897-0.127-1.562-0.128
		c-16.225,0.011-37.362,7.005-51.612,19.267C11.828,45.472,8.651,60.6,8.631,60.68l-0.284,1.354l1.271-0.548l0.523-0.226
		l0.288-0.122l0.105-0.297c2.94-8.229,10.163-19.323,25.449-28.376C51.246,23.422,68.089,21.473,71.768,21.184z M79.05,15.275
		L79.05,15.275C79.05,15.276,79.05,15.276,79.05,15.275L79.05,15.275L79.05,15.275z M13.87,51.027
		c2.567-5.016,6.694-11.196,13.157-16.762C40.932,22.268,61.875,15.334,77.7,15.346c0.569-0.002,0.966,0.04,1.213,0.088
		c-0.034,0.04-0.067,0.076-0.112,0.124c-0.49,0.525-1.562,1.54-2.873,2.431c-1.311,0.896-2.867,1.655-4.275,1.762
		c-3.811,0.309-20.812,2.255-36.4,11.48C24.89,37.364,18.137,44.452,13.87,51.027z"/>
	<path fill="#663399" d="M57.659,50.747c2.396-1.222,4.053-3.684,4.053-6.557c0-4.08-3.308-7.385-7.388-7.385
		c-4.079,0.001-7.384,3.305-7.385,7.385c0,2.873,1.657,5.335,4.052,6.557c-1.306,0.486-2.48,1.239-3.441,2.207
		c-1.728,1.737-2.792,4.144-2.792,6.792v20.977c0,0.604,0.277,1.133,0.672,1.495c0.396,0.366,0.923,0.593,1.498,0.595h14.792
		c0.572-0.002,1.102-0.229,1.497-0.592c0.396-0.365,0.675-0.895,0.675-1.498V59.745c0-2.647-1.065-5.056-2.793-6.792
		C60.141,51.985,58.965,51.232,57.659,50.747z M50.119,48.396c-1.077-1.08-1.741-2.562-1.741-4.207c0-1.646,0.664-3.127,1.741-4.205
		c1.079-1.078,2.561-1.741,4.205-1.742c1.645,0,3.128,0.664,4.207,1.742c1.078,1.078,1.742,2.56,1.742,4.205
		s-0.664,3.127-1.742,4.207c-1.079,1.077-2.562,1.742-4.207,1.742C52.68,50.138,51.198,49.473,50.119,48.396z M62.454,80.721
		c0,0.152-0.07,0.309-0.212,0.441c-0.141,0.131-0.34,0.212-0.521,0.211H46.929c-0.182,0.001-0.38-0.08-0.52-0.211
		c-0.142-0.133-0.212-0.288-0.211-0.441V59.745c0.001-4.519,3.617-8.168,8.127-8.168c4.512,0,8.128,3.651,8.13,8.168L62.454,80.721
		L62.454,80.721z"/>
	<path fill="#663399" d="M34.94,57.658c2.396-1.221,4.054-3.684,4.054-6.557c0-4.077-3.308-7.383-7.386-7.384
		c-4.081,0.001-7.386,3.307-7.386,7.384c0,2.874,1.657,5.336,4.053,6.557c-1.306,0.486-2.481,1.24-3.442,2.208
		c-1.728,1.737-2.792,4.145-2.792,6.792v14.062c0,0.603,0.277,1.133,0.672,1.494c0.396,0.366,0.923,0.594,1.498,0.596h14.792
		c0.575-0.002,1.102-0.229,1.498-0.596c0.395-0.361,0.672-0.895,0.673-1.494V66.658c0-2.647-1.064-5.055-2.792-6.792
		C37.422,58.898,36.247,58.145,34.94,57.658z M25.661,51.102c0-1.643,0.665-3.125,1.742-4.204c1.079-1.077,2.562-1.742,4.207-1.742
		c1.644,0,3.126,0.664,4.206,1.742c1.077,1.078,1.741,2.561,1.742,4.204c-0.001,1.645-0.665,3.126-1.742,4.205
		c-1.079,1.077-2.562,1.741-4.206,1.742c-1.645-0.001-3.128-0.665-4.207-1.742C26.325,54.229,25.662,52.747,25.661,51.102z
		 M39.736,80.721c0,0.153-0.069,0.312-0.211,0.441c-0.14,0.131-0.338,0.212-0.521,0.211H24.212c-0.182,0.001-0.38-0.08-0.52-0.211
		c-0.142-0.133-0.212-0.288-0.211-0.441V66.658c0.001-4.516,3.618-8.17,8.128-8.17c4.509,0,8.126,3.654,8.127,8.17V80.721z"/>
	<path fill="#663399" d="M79.883,60.868c2.395-1.222,4.053-3.683,4.053-6.556c0-4.082-3.309-7.384-7.388-7.387
		c-4.081,0-7.386,3.305-7.386,7.387c0,2.873,1.654,5.334,4.051,6.556c-1.305,0.485-2.479,1.239-3.439,2.207
		c-1.727,1.737-2.791,4.146-2.791,6.794v10.854c0,0.604,0.277,1.131,0.675,1.495c0.395,0.364,0.921,0.591,1.493,0.593h14.793
		c0.574-0.002,1.103-0.229,1.498-0.593c0.396-0.362,0.675-0.893,0.675-1.495V69.869c0-2.648-1.063-5.057-2.792-6.794
		C82.361,62.105,81.188,61.354,79.883,60.868z M72.342,58.518c-1.076-1.078-1.74-2.56-1.74-4.205c0-1.645,0.664-3.125,1.74-4.205
		c1.079-1.078,2.561-1.741,4.206-1.742c1.646,0,3.127,0.664,4.206,1.742c1.078,1.078,1.742,2.561,1.742,4.205
		c0,1.646-0.664,3.127-1.742,4.205c-1.079,1.078-2.561,1.741-4.206,1.741S73.421,59.596,72.342,58.518z M84.677,80.725
		c0,0.149-0.069,0.305-0.211,0.438c-0.141,0.131-0.34,0.212-0.522,0.211H69.15c-0.183,0.001-0.379-0.08-0.521-0.211
		c-0.143-0.134-0.211-0.288-0.211-0.438V69.869c0.002-4.52,3.617-8.172,8.128-8.172c4.513,0,8.127,3.654,8.129,8.172L84.677,80.725
		L84.677,80.725z"/>
</g>
</svg>
