<?xml version="1.0" encoding="utf-8"?>
<!-- Generator: Adobe Illustrator 16.0.0, SVG Export Plug-In . SVG Version: 6.00 Build 0)  -->
<!DOCTYPE svg PUBLIC "-//W3C//DTD SVG 1.1//EN" "http://www.w3.org/Graphics/SVG/1.1/DTD/svg11.dtd">
<svg version="1.1" id="Layer_1" xmlns="http://www.w3.org/2000/svg" xmlns:xlink="http://www.w3.org/1999/xlink" x="0px" y="0px"
	 width="71.03px" height="71.03px" viewBox="0 0 71.03 71.03" enable-background="new 0 0 71.03 71.03" xml:space="preserve">
<g>
	<path fill="#0099CC" d="M29.234,31.998h-0.488c0,1.407-1.136,2.554-2.56,2.557c-0.704,0-1.341-0.287-1.807-0.751
		c-0.466-0.465-0.752-1.102-0.752-1.805s0.286-1.339,0.752-1.805c0.466-0.465,1.104-0.751,1.807-0.751
		c1.424,0.002,2.559,1.15,2.56,2.557H29.234h0.487c-0.003-1.941-1.57-3.531-3.535-3.531c-1.947,0.002-3.533,1.586-3.535,3.531
		c0.002,1.945,1.587,3.529,3.535,3.531c1.965,0,3.531-1.589,3.535-3.531H29.234z"/>
	<path fill="#0099CC" d="M30.073,42.775h0.487v-3.617c-0.003-2.4-1.965-4.372-4.373-4.375c-2.408,0.003-4.353,1.978-4.354,4.375
		v4.104h8.727v-0.487H30.073v-0.487h-7.264v-3.13c0-0.931,0.378-1.78,0.992-2.4c0.615-0.619,1.456-1.001,2.387-1.001
		c0.932,0,1.778,0.382,2.397,1.002c0.619,0.621,1,1.471,1,2.399v3.617H30.073v-0.487V42.775z"/>
	<polygon fill="#0099CC" points="46.301,34.014 46.301,33.527 36.032,33.527 30.747,42.659 36.032,51.784 46.581,51.784 
		51.872,42.659 46.581,33.527 46.301,33.527 46.301,34.014 45.877,34.258 50.744,42.659 46.019,50.811 36.594,50.811 31.874,42.659 
		36.594,34.501 46.301,34.501 46.301,34.014 45.877,34.258 	"/>
	<path fill="#0099CC" d="M44.356,40.528H43.87c0,0.703-0.286,1.339-0.754,1.805c-0.467,0.466-1.103,0.753-1.807,0.753
		c-0.706,0-1.344-0.287-1.809-0.753c-0.465-0.465-0.752-1.102-0.752-1.805c0.004-1.409,1.15-2.553,2.561-2.556
		c0.704,0,1.342,0.284,1.807,0.748c0.468,0.466,0.754,1.103,0.754,1.808H44.356h0.488c-0.002-1.95-1.589-3.529-3.535-3.53
		c-1.95,0.001-3.533,1.581-3.533,3.53c0,1.944,1.581,3.529,3.533,3.53c1.948-0.002,3.533-1.585,3.535-3.53H44.356z"/>
	<path fill="#0099CC" d="M45.183,51.297h0.486v-3.616c-0.002-2.399-1.952-4.365-4.359-4.367c-2.405,0.003-4.369,1.966-4.371,4.367
		v4.104h8.73v-0.487H45.183v-0.486h-7.269v-3.13c0-0.93,0.382-1.776,1-2.396c0.618-0.616,1.464-0.997,2.396-0.997
		s1.775,0.381,2.392,0.996c0.614,0.619,0.995,1.466,0.995,2.396v3.616H45.183v-0.486V51.297z"/>
	<polygon fill="#0099CC" points="31.196,42.775 31.196,42.288 20.916,42.288 15.635,51.409 20.915,60.565 31.478,60.565 
		36.749,51.409 31.478,42.288 31.196,42.288 31.196,42.775 30.774,43.02 35.624,51.41 30.914,59.591 21.479,59.591 16.761,51.41 
		21.479,43.263 31.196,43.263 31.196,42.775 30.774,43.02 	"/>
	<path fill="#0099CC" d="M29.234,49.279h-0.488c0,1.408-1.135,2.558-2.56,2.558c-0.704,0-1.341-0.287-1.807-0.751
		c-0.465-0.466-0.752-1.103-0.752-1.807c0-0.703,0.286-1.34,0.752-1.805c0.466-0.466,1.104-0.753,1.807-0.753
		c1.424,0.003,2.559,1.15,2.56,2.558H29.234h0.487c-0.003-1.941-1.57-3.531-3.535-3.531c-1.947,0.002-3.533,1.586-3.535,3.531
		c0.002,1.946,1.587,3.529,3.535,3.531c0.98,0,1.868-0.397,2.505-1.037c0.637-0.639,1.03-1.523,1.03-2.494H29.234z"/>
	<path fill="#0099CC" d="M30.073,60.078h0.487v-3.646c-0.002-2.402-1.967-4.365-4.373-4.367c-2.407,0.001-4.353,1.969-4.354,4.367
		v4.134h8.727v-0.487H30.073v-0.487h-7.264v-3.159c0-0.932,0.378-1.778,0.992-2.396c0.614-0.616,1.456-0.998,2.387-0.998
		c0.932,0,1.779,0.382,2.398,0.999c0.618,0.619,1,1.465,1,2.396v3.646H30.073v-0.487V60.078z"/>
	<polygon fill="#0099CC" points="50.203,11.128 50.203,10.642 39.923,10.642 34.652,19.766 39.923,28.898 50.485,28.898 
		55.767,19.766 50.485,10.642 50.203,10.642 50.203,11.128 49.783,11.372 54.641,19.766 49.923,27.925 40.487,27.925 35.778,19.766 
		40.487,11.615 50.203,11.615 50.203,11.128 49.783,11.372 	"/>
	<path fill="#0099CC" d="M48.261,17.634h-0.486c0,0.704-0.287,1.341-0.752,1.806c-0.467,0.465-1.104,0.751-1.809,0.751
		c-1.423-0.002-2.559-1.149-2.561-2.558c0.002-1.425,1.134-2.553,2.561-2.556c1.408,0,2.557,1.135,2.561,2.556H48.261h0.488
		c0-1.961-1.591-3.526-3.535-3.529c-0.977,0-1.866,0.392-2.503,1.029c-0.64,0.637-1.032,1.523-1.032,2.5
		c0.004,1.942,1.571,3.532,3.535,3.532c1.948-0.002,3.533-1.586,3.535-3.532H48.261z"/>
	<path fill="#0099CC" d="M49.081,28.412h0.486v-3.636c0-2.396-1.948-4.354-4.354-4.355c-2.403,0.001-4.369,1.955-4.373,4.355v4.123
		h8.727v-0.487H49.081v-0.487h-7.266v-3.149c0-0.928,0.383-1.771,1.001-2.387c0.618-0.615,1.466-0.995,2.397-0.995
		s1.773,0.379,2.388,0.994c0.614,0.615,0.99,1.458,0.99,2.388v3.636H49.081v-0.487V28.412z"/>
	<polygon fill="#0099CC" points="31.196,25.492 31.196,25.005 20.916,25.005 15.635,34.128 20.916,43.263 31.478,43.263 
		36.749,34.128 31.478,25.005 31.196,25.005 31.196,25.492 30.774,25.735 35.624,34.128 30.914,42.288 21.479,42.288 16.761,34.128 
		21.479,25.979 31.196,25.979 31.196,25.492 30.774,25.735 	"/>
	<path fill="#0099CC" d="M0.848,35.301h0.488c0-9.418,3.821-17.941,10.001-24.113C17.517,5.016,26.05,1.2,35.48,1.2
		c9.43,0,17.962,3.816,24.144,9.988c6.18,6.172,10,14.695,10,24.113c0,9.417-3.82,17.94-10,24.113
		c-6.182,6.173-14.714,9.989-24.144,9.989c-9.43,0-17.963-3.816-24.144-9.989C5.157,53.241,1.335,44.719,1.335,35.301H0.848H0.36
		c0,19.372,15.723,35.076,35.12,35.076c19.396,0,35.118-15.704,35.118-35.076c0-19.372-15.723-35.075-35.118-35.075
		c-19.397,0-35.12,15.703-35.12,35.075H0.848z"/>
</g>
</svg>
