<?xml version="1.0" encoding="utf-8"?>
<!-- Generator: Adobe Illustrator 16.0.0, SVG Export Plug-In . SVG Version: 6.00 Build 0)  -->
<!DOCTYPE svg PUBLIC "-//W3C//DTD SVG 1.1//EN" "http://www.w3.org/Graphics/SVG/1.1/DTD/svg11.dtd">
<svg version="1.1" id="Layer_1" xmlns="http://www.w3.org/2000/svg" xmlns:xlink="http://www.w3.org/1999/xlink" x="0px" y="0px"
	 width="71.03px" height="71.03px" viewBox="0 0 71.03 71.03" enable-background="new 0 0 71.03 71.03" xml:space="preserve">
<g>
	<path fill="#0099CC" d="M19.741,56.118h0.488V14.373c0-0.352,0.144-0.669,0.377-0.903c0.234-0.233,0.552-0.375,0.898-0.375h27.677
		c0.348,0,0.665,0.141,0.898,0.375c0.235,0.234,0.379,0.551,0.379,0.903v41.745c0,0.346-0.144,0.663-0.379,0.898
		c-0.233,0.233-0.551,0.377-0.898,0.377H21.504c-0.345,0-0.663-0.144-0.898-0.377c-0.235-0.235-0.377-0.553-0.377-0.898H19.741
		h-0.487c0.004,1.238,1.013,2.245,2.25,2.249h27.677c1.238-0.004,2.248-1.011,2.252-2.249V14.373
		c-0.004-1.246-1.016-2.25-2.252-2.252H21.504c-1.235,0.002-2.248,1.007-2.25,2.252v41.745H19.741z"/>
	<path fill="#FFFFFF" d="M35.343,56.118c-0.815,0-1.47-0.649-1.47-1.47c0-0.811,0.655-1.462,1.47-1.462
		c0.815,0,1.47,0.651,1.47,1.462C36.812,55.469,36.158,56.118,35.343,56.118"/>
	<path fill="#0099CC" d="M35.343,56.118v-0.486c-0.549-0.003-0.98-0.429-0.982-0.983c0.001-0.541,0.434-0.974,0.982-0.975
		c0.549,0.001,0.982,0.434,0.983,0.975c-0.003,0.555-0.434,0.98-0.983,0.983V56.118v0.487c0.539,0,1.032-0.217,1.386-0.569
		c0.354-0.354,0.573-0.849,0.573-1.388c-0.002-1.08-0.877-1.947-1.959-1.949c-1.081,0.002-1.956,0.869-1.958,1.949
		c0,0.539,0.218,1.034,0.572,1.388c0.354,0.353,0.848,0.569,1.386,0.569V56.118z"/>
	<polyline fill="#0099CC" points="50.944,50.934 19.741,50.934 19.741,51.907 50.944,51.907 	"/>
	<path fill="#0099CC" d="M35.045,23.191v-0.487c-5.465,0-9.902,4.427-9.903,9.9c0,3.463,1.78,6.509,4.487,8.269l0.753,0.488v-3.515
		c0.001-2.536,2.024-4.588,4.556-4.588v-0.974c-1.833-0.003-3.311-1.482-3.314-3.308c0.003-1.828,1.481-3.309,3.314-3.312
		c0.918,0,1.745,0.37,2.349,0.971c0.603,0.602,0.973,1.427,0.973,2.342c-0.004,1.824-1.487,3.304-3.322,3.308v0.974
		c2.532,0.005,4.566,2.054,4.568,4.588v3.619l0.741-0.457c2.825-1.735,4.705-4.845,4.705-8.404c0-2.734-1.106-5.213-2.899-7.002
		c-1.79-1.791-4.271-2.898-7.008-2.898V23.191v0.487c4.94,0,8.932,3.991,8.932,8.927c0,3.211-1.69,6.007-4.239,7.574l0.255,0.415
		h0.488v-2.747c0-1.531-0.617-2.924-1.618-3.93c-1.001-1.007-2.389-1.632-3.924-1.631v0.974c2.373,0,4.295-1.916,4.297-4.281
		c-0.002-2.366-1.925-4.286-4.297-4.287c-2.373,0-4.289,1.922-4.289,4.287c0,2.364,1.917,4.281,4.289,4.281v-0.974
		c-1.535,0-2.923,0.625-3.919,1.632c-0.998,1.006-1.611,2.399-1.611,3.93v2.617h0.487l0.266-0.408
		c-2.442-1.589-4.044-4.326-4.044-7.451c0-2.469,1-4.698,2.617-6.314c1.618-1.616,3.848-2.613,6.312-2.613V23.191z"/>
	<path fill="#0099CC" d="M25.63,32.604h0.487c0-2.469,1-4.698,2.617-6.314c1.618-1.616,3.848-2.613,6.312-2.613
		c4.94,0,8.934,3.991,8.934,8.927c0,2.458-0.998,4.687-2.615,6.306c-1.616,1.617-3.847,2.62-6.319,2.62
		c-2.463,0-4.693-1.003-6.311-2.62c-1.617-1.619-2.617-3.848-2.617-6.306H25.63h-0.487c0.001,5.452,4.437,9.898,9.903,9.899
		c5.48-0.001,9.908-4.447,9.91-9.899c0-2.734-1.108-5.213-2.901-7.003c-1.79-1.79-4.271-2.898-7.008-2.897
		c-5.465,0-9.902,4.427-9.903,9.9H25.63z"/>
	<path fill="#0099CC" d="M0.848,35.302h0.488c0-9.418,3.821-17.941,10-24.113C17.517,5.017,26.049,1.2,35.48,1.2
		c9.43,0,17.962,3.816,24.142,9.988c6.18,6.173,10.002,14.695,10.002,24.113s-3.822,17.94-10.002,24.113
		c-6.18,6.172-14.712,9.988-24.142,9.988c-9.431,0-17.963-3.816-24.144-9.988c-6.18-6.173-10-14.695-10-24.113H0.848H0.361
		c0,19.372,15.722,35.075,35.119,35.075c19.394,0,35.119-15.703,35.119-35.075c0-19.371-15.725-35.075-35.119-35.076
		c-19.397,0-35.119,15.705-35.119,35.076l0,0H0.848z"/>
</g>
</svg>
