<?xml version="1.0" encoding="utf-8"?>
<!-- Generator: Adobe Illustrator 16.0.0, SVG Export Plug-In . SVG Version: 6.00 Build 0)  -->
<!DOCTYPE svg PUBLIC "-//W3C//DTD SVG 1.1//EN" "http://www.w3.org/Graphics/SVG/1.1/DTD/svg11.dtd">
<svg version="1.1" id="Layer_1" xmlns="http://www.w3.org/2000/svg" xmlns:xlink="http://www.w3.org/1999/xlink" x="0px" y="0px"
	 width="15px" height="15px" viewBox="0 0 15 15" enable-background="new 0 0 15 15" xml:space="preserve">
<g>
	<path fill="#0099CC" d="M14.255,7.5h-0.514c0,1.724-0.697,3.281-1.829,4.412c-1.131,1.132-2.688,1.829-4.412,1.829
		c-1.725,0-3.282-0.697-4.413-1.829C1.958,10.781,1.26,9.225,1.259,7.5C1.26,5.776,1.958,4.218,3.088,3.088
		C4.219,1.958,5.776,1.26,7.5,1.259c1.724,0.001,3.281,0.698,4.412,1.829c1.132,1.13,1.829,2.688,1.829,4.413H14.255h0.512
		c0-4.014-3.254-7.267-7.266-7.267c-4.014,0-7.267,3.253-7.267,7.267c0,4.014,3.253,7.266,7.267,7.266
		c4.012,0,7.266-3.252,7.266-7.266H14.255z"/>
</g>
<circle fill="#0099CC" cx="7.501" cy="7.5" r="3.236"/>
</svg>
