<?xml version="1.0" encoding="utf-8"?>
<!-- Generator: Adobe Illustrator 16.0.0, SVG Export Plug-In . SVG Version: 6.00 Build 0)  -->
<!DOCTYPE svg PUBLIC "-//W3C//DTD SVG 1.1//EN" "http://www.w3.org/Graphics/SVG/1.1/DTD/svg11.dtd">
<svg version="1.1" id="ICON-1" xmlns="http://www.w3.org/2000/svg" xmlns:xlink="http://www.w3.org/1999/xlink" x="0px" y="0px"
	 width="105px" height="105px" viewBox="0 0 105 105" enable-background="new 0 0 105 105" xml:space="preserve">
<g>
	<path fill="#FFFFFF" d="M61.439,38.111l-0.793-0.792l-0.037,0.036c-1.33-1.208-2.926-2.123-4.701-2.638
		c3.412-1.339,5.834-4.655,5.834-8.543c0-5.071-4.111-9.181-9.181-9.182c-5.074,0-9.183,4.11-9.183,9.182
		c0,3.888,2.419,7.205,5.833,8.543c-1.976,0.573-3.743,1.632-5.152,3.05c-2.167,2.181-3.504,5.198-3.503,8.522v17.035
		c0,0.664,0.306,1.252,0.752,1.662c0.448,0.412,1.045,0.666,1.688,0.668h13.449l0.051,0.051l0.05-0.051h5.576
		c0.642-0.002,1.239-0.256,1.687-0.668c0.446-0.41,0.754-0.998,0.754-1.662V46.289c0-3.14-1.201-5.997-3.158-8.142L61.439,38.111z
		 M58.26,31.873c-1.033,1.034-2.349,1.779-3.814,2.131l6.023-6.277C60.154,29.328,59.371,30.761,58.26,31.873z M60.609,25.958
		l-7.936,8.27c-0.038,0.001-0.075,0.005-0.114,0.005c-1.194,0-2.321-0.265-3.338-0.729l10.668-10.669
		C60.327,23.792,60.58,24.846,60.609,25.958z M44.5,26.173c0-2.228,0.9-4.239,2.36-5.699s3.471-2.36,5.701-2.361
		c0.076,0,0.15,0.009,0.226,0.011l-8.283,8.135C44.503,26.23,44.5,26.202,44.5,26.173z M45.537,30.122
		c-0.439-0.779-0.749-1.639-0.908-2.553l0.07,0.072l9.525-9.355c0.813,0.171,1.58,0.467,2.284,0.864L45.537,30.122z M48.196,32.944
		c-0.482-0.311-0.932-0.667-1.336-1.072c-0.249-0.249-0.474-0.519-0.689-0.798l11.29-11.29c0.279,0.214,0.551,0.44,0.799,0.689
		c0.404,0.404,0.76,0.854,1.072,1.336L48.196,32.944z M51.543,35.407L41.71,45.654C42.019,40.25,46.197,35.9,51.543,35.407z
		 M41.678,47.308l11.441-11.923c1.105,0.056,2.164,0.274,3.156,0.635L41.678,50.617V47.308z M41.678,52.202l15.708-15.707
		c0.887,0.44,1.701,0.997,2.43,1.652l-18.138,18.14V52.202z M63.441,63.324c0,0.311-0.145,0.607-0.393,0.838
		c-0.249,0.229-0.59,0.371-0.927,0.371h-4.454l5.771-5.773v4.564H63.441z M63.441,57.174l-7.358,7.359h-4.04l11.398-11.25V57.174z
		 M63.441,51.707L50.448,64.533h-4.076l17.069-16.9V51.707L63.441,51.707z M63.43,46.066L44.777,64.533h-1.78
		c-0.337,0-0.68-0.143-0.927-0.371c-0.196-0.182-0.302-0.41-0.349-0.65l21.027-21.041C63.164,43.595,63.404,44.802,63.43,46.066z
		 M62.271,41.363L41.678,61.969v-4.096L60.609,38.94C61.268,39.666,61.827,40.479,62.271,41.363z"/>
	<path fill="#FFFFFF" d="M29.031,47.054c3.414-1.34,5.834-4.656,5.835-8.544c0-5.071-4.11-9.181-9.183-9.182
		c-5.072,0-9.181,4.111-9.182,9.182c0,3.889,2.42,7.205,5.834,8.544c-1.977,0.573-3.744,1.631-5.152,3.049
		c-2.167,2.181-3.504,5.197-3.503,8.523V75.66c0,0.664,0.307,1.254,0.753,1.664c0.447,0.412,1.044,0.666,1.686,0.668h19.128
		c0.641-0.002,1.238-0.256,1.686-0.668c0.446-0.41,0.754-1,0.754-1.664V58.627c0-3.326-1.336-6.342-3.504-8.523
		C32.774,48.686,31.007,47.627,29.031,47.054z M19.983,44.21c-1.459-1.461-2.36-3.472-2.36-5.7c0-2.227,0.901-4.239,2.36-5.699
		c1.46-1.459,3.472-2.36,5.7-2.361c2.229,0,4.24,0.902,5.7,2.361c1.46,1.46,2.36,3.473,2.361,5.699
		c-0.001,2.228-0.901,4.239-2.361,5.7c-1.46,1.46-3.472,2.361-5.7,2.362C23.455,46.571,21.443,45.67,19.983,44.21z M36.564,75.66
		c0,0.312-0.144,0.609-0.392,0.84c-0.248,0.229-0.59,0.371-0.925,0.369H16.119c-0.335,0.002-0.678-0.141-0.925-0.369
		c-0.249-0.23-0.393-0.527-0.393-0.84V58.627c0.001-6.042,4.844-10.934,10.882-10.934c6.037,0,10.881,4.892,10.882,10.934
		L36.564,75.66L36.564,75.66z"/>
	<path fill="#FFFFFF" d="M79.52,49.936c-5.387,0.001-9.761,4.402-9.762,9.812v17.121h19.521V59.748
		C89.277,54.338,84.9,49.938,79.52,49.936z"/>
	<path fill="#FFFFFF" d="M88.018,51.225c-1.408-1.418-3.176-2.477-5.15-3.049c3.414-1.34,5.835-4.656,5.835-8.544
		c0-5.072-4.111-9.182-9.183-9.182c-5.074,0-9.183,4.11-9.183,9.182c0,3.888,2.418,7.204,5.833,8.544
		c-1.977,0.573-3.742,1.631-5.152,3.049c-2.168,2.179-3.502,5.199-3.502,8.523v17.033c0,0.666,0.307,1.254,0.754,1.664
		c0.446,0.412,1.043,0.666,1.686,0.668H89.08c0.643-0.002,1.238-0.256,1.686-0.668c0.448-0.408,0.756-0.998,0.756-1.664V59.748
		C91.521,56.424,90.186,53.404,88.018,51.225z M73.818,45.332c-1.461-1.461-2.362-3.473-2.362-5.7c0-2.228,0.901-4.239,2.362-5.699
		c1.459-1.459,3.472-2.36,5.699-2.361c2.229,0.001,4.239,0.902,5.699,2.361c1.458,1.459,2.36,3.471,2.36,5.699
		s-0.902,4.239-2.36,5.7c-1.46,1.459-3.472,2.36-5.699,2.361C77.29,47.692,75.279,46.792,73.818,45.332z M90.398,76.781
		c0,0.312-0.144,0.609-0.394,0.84c-0.247,0.229-0.591,0.371-0.928,0.371H69.954c-0.335,0-0.679-0.143-0.927-0.371
		c-0.248-0.23-0.391-0.527-0.391-0.84V59.748c0-6.043,4.844-10.934,10.881-10.934c6.039,0,10.881,4.891,10.881,10.934V76.781z"/>
	<path fill="#FFFFFF" d="M86.457,39.632c-0.001-3.828-3.109-6.938-6.938-6.938c-3.832,0.001-6.938,3.111-6.939,6.938
		c0.001,3.828,3.107,6.938,6.939,6.94C83.348,46.57,86.456,43.46,86.457,39.632z"/>
	<path fill="#FFFFFF" d="M52.56,0.254c-28.854,0-52.244,23.39-52.244,52.244c0,28.855,23.39,52.244,52.244,52.244
		s52.245-23.389,52.245-52.244C104.805,23.644,81.414,0.254,52.56,0.254z M88.708,88.646C79.455,97.9,66.68,103.621,52.56,103.621
		c-14.119,0-26.896-5.721-36.149-14.975C7.159,79.395,1.438,66.617,1.438,52.498S7.16,25.602,16.411,16.349
		C25.664,7.097,38.44,1.375,52.56,1.375c14.12,0,26.895,5.722,36.148,14.973c9.253,9.253,14.974,22.03,14.974,36.149
		C103.682,66.617,97.961,79.395,88.708,88.646z"/>
</g>
</svg>
