<?xml version="1.0" encoding="utf-8"?>
<!-- Generator: Adobe Illustrator 16.0.0, SVG Export Plug-In . SVG Version: 6.00 Build 0)  -->
<!DOCTYPE svg PUBLIC "-//W3C//DTD SVG 1.1//EN" "http://www.w3.org/Graphics/SVG/1.1/DTD/svg11.dtd">
<svg version="1.1" id="Layer_1" xmlns="http://www.w3.org/2000/svg" xmlns:xlink="http://www.w3.org/1999/xlink" x="0px" y="0px"
	 width="33px" height="33px" viewBox="0 0 33 33" enable-background="new 0 0 33 33" xml:space="preserve">
<g>
	<polygon fill="#FFFFFF" points="10.822,4.735 27.78,16.22 10.822,27.705 	"/>
	<path fill="#FFFFFF" d="M32.211,16.443h-0.51c0,4.21-1.704,8.017-4.464,10.773c-2.759,2.761-6.563,4.466-10.774,4.466
		c-4.21,0-8.016-1.705-10.775-4.466C2.93,24.46,1.225,20.653,1.225,16.443c0-4.209,1.705-8.015,4.463-10.774
		c2.759-2.758,6.565-4.463,10.775-4.464c4.211,0,8.016,1.706,10.774,4.464c2.76,2.759,4.464,6.565,4.464,10.774H32.211h0.509
		c0-8.978-7.277-16.257-16.257-16.257S0.206,7.465,0.206,16.443c0,8.979,7.277,16.258,16.257,16.258S32.72,25.422,32.72,16.443
		H32.211z"/>
</g>
</svg>
