<?xml version="1.0" encoding="utf-8"?>
<!-- Generator: Adobe Illustrator 16.0.0, SVG Export Plug-In . SVG Version: 6.00 Build 0)  -->
<!DOCTYPE svg PUBLIC "-//W3C//DTD SVG 1.1//EN" "http://www.w3.org/Graphics/SVG/1.1/DTD/svg11.dtd">
<svg version="1.1" id="Layer_1" xmlns="http://www.w3.org/2000/svg" xmlns:xlink="http://www.w3.org/1999/xlink" x="0px" y="0px"
	 width="55px" height="55px" viewBox="0 0 55 55" enable-background="new 0 0 55 55" xml:space="preserve">
<g>
	<path fill="#FFAE00" d="M22.601,15.646c-0.506,0.589-0.439,1.476,0.15,1.982L34.834,28.01L22.751,38.395
		c-0.589,0.506-0.656,1.393-0.15,1.982c0.506,0.588,1.394,0.656,1.982,0.148L39.147,28.01L24.583,15.496
		C23.994,14.989,23.107,15.057,22.601,15.646z"/>
	<path fill="#FFAE00" d="M27.583,0.481C12.661,0.482,0.565,12.578,0.564,27.5c0.001,14.924,12.097,27.018,27.019,27.02
		c14.923-0.002,27.019-12.096,27.02-27.02C54.602,12.578,42.506,0.482,27.583,0.481z M44.701,44.617
		c-4.385,4.385-10.429,7.09-17.118,7.09c-6.688,0-12.731-2.705-17.117-7.09C6.083,40.232,3.376,34.189,3.375,27.5
		c0.001-6.689,2.708-12.732,7.091-17.117C14.851,6,20.895,3.293,27.583,3.292C34.272,3.293,40.316,6,44.701,10.383
		c4.383,4.385,7.089,10.428,7.09,17.117C51.79,34.189,49.084,40.232,44.701,44.617z"/>
</g>
</svg>
