<?xml version="1.0" encoding="utf-8"?>
<!-- Generator: Adobe Illustrator 16.0.0, SVG Export Plug-In . SVG Version: 6.00 Build 0)  -->
<!DOCTYPE svg PUBLIC "-//W3C//DTD SVG 1.1//EN" "http://www.w3.org/Graphics/SVG/1.1/DTD/svg11.dtd">
<svg version="1.1" id="ICON-2" xmlns="http://www.w3.org/2000/svg" xmlns:xlink="http://www.w3.org/1999/xlink" x="0px" y="0px"
	 width="105px" height="105px" viewBox="0 0 105 105" enable-background="new 0 0 105 105" xml:space="preserve">
<g>
	<path fill="#FF9900" d="M93.984,51.388l-0.062,0.033l-3.958-5.948l0.02-0.019l-0.092-0.09l-0.117-0.174l-0.034,0.024l-6.232-6.151
		l-0.021,0.021l-7.014-5.064l0.008-0.019l-6.955-3.169l-0.012,0.026l-7.906-2.153v-0.018l-8.264-0.611l-0.002,0.027l-8.835,0.533
		v0.012l-8.162,1.991l0.009,0.037l-7.03,3.641l-0.013-0.02l-7.476,4.836l0.013,0.019L16.5,44.73l-0.017-0.011l-4.715,7.326
		l0.854,0.549l0.021-0.033l39.834,22.445l0.021,0.059l0.048-0.018l0.02,0.01l0.023,0.129l0.137-0.024l0.076,0.131v0.026h0.837
		l0.082,0.029l0.012-0.029h0.086v-0.045l40.666-22.999L93.984,51.388z M13.194,51.705l3.833-5.957l31.111,25.646L13.194,51.705z
		 M17.677,44.968l4.445-4.635l27.253,30.765L17.677,44.968z M22.886,39.664l6.534-4.228l20.165,34.369L22.886,39.664z M30.311,34.95
		l6.07-3.144l13.771,36.958L30.311,34.95z M51.552,69.615l-14.221-38.17l6.812-1.663L51.552,69.615
		C51.553,69.615,51.553,69.615,51.552,69.615z M52.802,70.777l-0.127-0.688c0.04-0.022,0.084-0.043,0.127-0.063V70.777z
		 M52.802,68.863c-0.114,0.035-0.226,0.074-0.333,0.121l-7.325-39.369l7.658-0.463V68.863z M88.465,45.382l-31.74,25.771
		l26.461-30.981L88.465,45.382z M69.605,31.983l5.947,2.709l-18.84,32.484L69.605,31.983z M53.816,68.74V29.128l7.156,0.53
		L53.952,68.75C53.906,68.746,53.861,68.742,53.816,68.74z M54.934,69.025l7.037-39.17l6.668,1.815L54.95,69.033
		C54.943,69.031,54.938,69.029,54.934,69.025z M56.18,70.123l20.235-34.894l5.972,4.312L56.218,70.18
		C56.206,70.16,56.189,70.143,56.18,70.123z M56.717,72.465l32.457-26.35l3.865,5.808L56.717,72.465z"/>
	<path fill="#FF9900" d="M52.56,0.254c-28.854,0-52.242,23.39-52.243,52.244c0,28.854,23.389,52.245,52.243,52.245
		c28.855,0,52.243-23.392,52.243-52.245C104.803,23.644,81.415,0.254,52.56,0.254z M88.785,88.723
		c-9.273,9.271-22.077,15.004-36.226,15.004c-14.148,0-26.951-5.731-36.224-15.004C7.065,79.451,1.333,66.646,1.333,52.498
		c0-14.148,5.732-26.952,15.003-36.225C25.608,7.002,38.411,1.27,52.56,1.27c14.148,0,26.952,5.732,36.226,15.003
		c9.271,9.273,15.004,22.076,15.004,36.225C103.789,66.646,98.055,79.451,88.785,88.723z"/>
</g>
</svg>
