<?xml version="1.0" encoding="utf-8"?>
<!-- Generator: Adobe Illustrator 16.0.0, SVG Export Plug-In . SVG Version: 6.00 Build 0)  -->
<!DOCTYPE svg PUBLIC "-//W3C//DTD SVG 1.1//EN" "http://www.w3.org/Graphics/SVG/1.1/DTD/svg11.dtd">
<svg version="1.1" id="Layer_9" xmlns="http://www.w3.org/2000/svg" xmlns:xlink="http://www.w3.org/1999/xlink" x="0px" y="0px"
	 width="105px" height="105px" viewBox="0 0 105 105" enable-background="new 0 0 105 105" xml:space="preserve">
<g>
	<path fill="#FF9900" d="M52.501,0.117c-28.859,0-52.25,23.394-52.251,52.25c0.001,28.857,23.393,52.25,52.251,52.25
		c28.856,0,52.247-23.393,52.249-52.25C104.748,23.511,81.357,0.118,52.501,0.117z M88.421,88.289
		c-9.194,9.191-21.89,14.877-35.919,14.877c-14.031,0-26.726-5.686-35.921-14.877c-9.196-9.193-14.88-21.893-14.88-35.921
		c0-14.03,5.685-26.726,14.879-35.92c9.195-9.195,21.889-14.88,35.921-14.88c14.03,0,26.724,5.685,35.919,14.879
		c9.193,9.195,14.878,21.889,14.88,35.92C103.299,66.396,97.613,79.096,88.421,88.289z"/>
	<path fill="#FF9900" d="M52.5,18.875L11.583,45.924l13.48,7.391V64.21l6.413,3.892v12.145c0,0.227,0.141,0.432,0.353,0.511
		c0.212,0.078,0.452,0.017,0.601-0.153l4.586-5.246l4.882,12.838c0.093,0.246,0.348,0.392,0.606,0.344
		c0.257-0.049,0.446-0.271,0.446-0.536V75.061l9.554,5.797l27.194-16.433V53.445l13.722-7.521L52.5,18.875z M31.476,66.828
		l-5.325-3.23V53.91l5.325,2.918V66.828z M41.863,73.127v0.639V74.4v10.64l-4.154-10.92c-0.068-0.179-0.224-0.31-0.411-0.343
		c-0.188-0.033-0.381,0.033-0.507,0.177l-4.228,4.84V68.761v-0.637v-0.636V57.425l9.299,5.099L41.863,73.127L41.863,73.127z
		 M78.609,63.811L52.505,79.584l-9.555-5.797V63.119l9.55,5.232l0.262-0.142l25.847-14.168V63.811z M79.152,52.504l-0.543,0.298
		L52.5,67.113l-9.55-5.235l-0.544-0.297l-0.543-0.299l-9.299-5.097l-0.544-0.3l-0.544-0.298l-5.325-2.918l-0.544-0.298l-0.544-0.298
		l-11.376-6.235L52.5,20.18l38.814,25.659l-11.616,6.367L79.152,52.504z"/>
</g>
</svg>
