<?xml version="1.0" encoding="utf-8"?>
<!-- Generator: Adobe Illustrator 16.0.0, SVG Export Plug-In . SVG Version: 6.00 Build 0)  -->
<!DOCTYPE svg PUBLIC "-//W3C//DTD SVG 1.1//EN" "http://www.w3.org/Graphics/SVG/1.1/DTD/svg11.dtd">
<svg version="1.1" id="Layer_7" xmlns="http://www.w3.org/2000/svg" xmlns:xlink="http://www.w3.org/1999/xlink" x="0px" y="0px"
	 width="105px" height="105px" viewBox="0 0 105 105" enable-background="new 0 0 105 105" xml:space="preserve">
<g>
	<path fill="#FF9900" d="M52.501,0.117c-28.809,0-52.16,23.352-52.161,52.161c0.001,28.806,23.353,52.162,52.161,52.162
		c28.808,0,52.159-23.354,52.159-52.162C104.66,23.469,81.309,0.118,52.501,0.117z M88.348,88.124
		c-9.179,9.175-21.847,14.851-35.847,14.851c-14.001,0-26.671-5.676-35.848-14.851C7.479,78.948,1.805,66.277,1.805,52.278
		c0-14.001,5.673-26.671,14.848-35.848C25.83,7.255,38.499,1.583,52.501,1.583c14,0,26.668,5.673,35.847,14.848
		c9.174,9.176,14.848,21.846,14.848,35.848C103.195,66.277,97.521,78.948,88.348,88.124z"/>
	<path fill="#FF9900" d="M57.236,26.956h-7.698c-3.799,0-7.027,2.442-8.224,5.836c-1.782-5.749-7.141-9.921-13.473-9.922
		c-7.79,0-14.104,6.313-14.105,14.103c0,5.779,3.478,10.737,8.451,12.917c0.033,0.631,0.125,1.246,0.273,1.84v26.021h63.049V77.2
		V51.733c0.19-0.762,0.304-1.555,0.304-2.375V34.833H65.92C65.491,30.417,61.764,26.956,57.236,26.956z M70.124,58.104v-3.717
		c0-1.624-1.322-2.944-2.946-2.946c-1.626,0.002-2.945,1.322-2.947,2.946v3.717H44.344v-3.717c-0.001-1.624-1.322-2.944-2.948-2.946
		c-1.625,0.002-2.946,1.322-2.948,2.946v3.717h-6.446c-2.411,0-4.593-0.98-6.178-2.564c-1.076-1.075-1.863-2.432-2.264-3.941v-1.186
		c1.351,0.43,2.788,0.666,4.282,0.666c7.788,0,14.104-6.313,14.104-14.104c0-0.25-0.024-0.494-0.037-0.742h42.503V51.6
		c-0.4,1.509-1.188,2.863-2.264,3.938c-1.586,1.584-3.769,2.563-6.18,2.563h-5.845V58.104z M65.328,63.673v-4.472h3.697v4.472
		c-0.002,1.015-0.834,1.847-1.849,1.849C66.162,65.52,65.33,64.688,65.328,63.673z M65.328,58.104v-3.717
		c0.002-1.011,0.836-1.845,1.85-1.847c1.012,0.002,1.846,0.836,1.848,1.847v3.717H65.328z M39.547,63.673v-4.472h3.698v4.472
		c-0.001,1.015-0.834,1.847-1.849,1.849C40.383,65.52,39.549,64.688,39.547,63.673z M39.547,58.104v-3.717
		c0.001-1.011,0.836-1.845,1.849-1.847c1.013,0.002,1.847,0.836,1.849,1.847v3.717H39.547z M44.148,30.292
		c1.382-1.383,3.287-2.237,5.391-2.237h7.697c2.104,0,4.009,0.854,5.392,2.237c1.19,1.192,1.953,2.782,2.151,4.541H41.998
		C42.195,33.073,42.957,31.483,44.148,30.292z M22.16,48.658c-1.306-0.636-2.498-1.472-3.515-2.488
		c-2.354-2.355-3.809-5.604-3.809-9.197c0-3.593,1.455-6.84,3.809-9.196c2.355-2.354,5.604-3.809,9.197-3.809
		c3.592,0,6.84,1.455,9.195,3.809c1.875,1.876,3.165,4.323,3.619,7.055c0.016,0.1,0.032,0.2,0.046,0.3
		c0.038,0.265,0.07,0.53,0.092,0.799c0.008,0.1,0.01,0.201,0.016,0.3c0.015,0.247,0.037,0.492,0.037,0.742
		c0,3.593-1.455,6.841-3.809,9.197c-2.355,2.354-5.603,3.809-9.195,3.809c-1.503,0-2.939-0.268-4.282-0.736
		c-0.101-0.035-0.201-0.072-0.301-0.11c-0.27-0.102-0.537-0.209-0.798-0.329C22.36,48.757,22.26,48.708,22.16,48.658z
		 M84.412,76.652H23.561v-22.26c1.72,2.875,4.855,4.809,8.442,4.81h6.446v4.472c0.001,1.627,1.323,2.946,2.948,2.947
		c1.624-0.001,2.946-1.32,2.948-2.947v-4.472H64.23v4.472c0.002,1.627,1.324,2.946,2.947,2.947c1.624-0.001,2.946-1.32,2.946-2.947
		v-4.472h5.847c3.586-0.001,6.723-1.935,8.441-4.808V76.652z"/>
	<polygon fill="#FF9900" points="23.259,37.991 23.561,37.991 26.825,37.991 26.825,44.089 28.858,44.089 28.858,37.991 
		34.958,37.991 34.958,36.231 34.958,35.957 28.858,35.957 28.858,35.932 28.858,35.132 28.858,34.833 28.858,29.857 26.825,29.857 
		26.825,34.833 26.825,35.132 26.825,35.932 23.259,35.932 23.259,35.957 22.461,35.957 22.16,35.957 20.726,35.957 20.726,37.991 
		22.16,37.991 22.461,37.991 	"/>
</g>
</svg>
