<?xml version="1.0" encoding="utf-8"?>
<!-- Generator: Adobe Illustrator 16.0.0, SVG Export Plug-In . SVG Version: 6.00 Build 0)  -->
<!DOCTYPE svg PUBLIC "-//W3C//DTD SVG 1.1//EN" "http://www.w3.org/Graphics/SVG/1.1/DTD/svg11.dtd">
<svg version="1.1" id="Layer_1" xmlns="http://www.w3.org/2000/svg" xmlns:xlink="http://www.w3.org/1999/xlink" x="0px" y="0px"
	 width="35px" height="35px" viewBox="0 0 35 35" enable-background="new 0 0 35 35" xml:space="preserve">
<g>
	<path fill="#FF9900" d="M17.5,0.191c-9.561,0-17.311,7.75-17.311,17.31c0,9.56,7.75,17.31,17.311,17.31
		c9.561,0,17.311-7.75,17.311-17.31C34.811,7.941,27.061,0.191,17.5,0.191z M28.973,28.975c-2.938,2.937-6.99,4.752-11.473,4.752
		c-4.483,0-8.536-1.815-11.474-4.752C3.089,26.035,1.275,21.982,1.274,17.5c0.001-4.482,1.815-8.535,4.752-11.473
		C8.964,3.09,13.017,1.275,17.5,1.275c4.482,0,8.535,1.815,11.473,4.752c2.938,2.938,4.754,6.991,4.754,11.473
		C33.727,21.982,31.91,26.035,28.973,28.975z"/>
	<polygon fill="#FF9900" points="21.064,5.232 14.484,5.232 14.484,16.967 8.737,16.967 17.9,30.496 27.062,16.967 21.064,16.967 	
		"/>
</g>
</svg>
