<?xml version="1.0" encoding="utf-8"?>
<!-- Generator: Adobe Illustrator 16.0.0, SVG Export Plug-In . SVG Version: 6.00 Build 0)  -->
<!DOCTYPE svg PUBLIC "-//W3C//DTD SVG 1.1//EN" "http://www.w3.org/Graphics/SVG/1.1/DTD/svg11.dtd">
<svg version="1.1" id="Layer_1" xmlns="http://www.w3.org/2000/svg" xmlns:xlink="http://www.w3.org/1999/xlink" x="0px" y="0px"
	 width="35px" height="35px" viewBox="0 0 35 35" enable-background="new 0 0 35 35" xml:space="preserve">
<g>
	<path fill="#FF9900" d="M17.5,0.191c-9.56,0-17.311,7.75-17.311,17.31s7.75,17.31,17.311,17.31c9.56,0,17.31-7.75,17.31-17.31
		S27.06,0.191,17.5,0.191z M28.973,28.975c-2.938,2.936-6.991,4.752-11.473,4.752c-4.482,0-8.536-1.816-11.473-4.752
		C3.09,26.035,1.275,21.982,1.274,17.5C1.275,13.019,3.09,8.966,6.027,6.028C8.964,3.09,13.018,1.275,17.5,1.275
		c4.481,0,8.535,1.815,11.473,4.752c2.938,2.938,4.753,6.991,4.753,11.473S31.91,26.035,28.973,28.975z"/>
	<polygon fill="#FF9900" points="12.073,29.729 30.129,17.5 12.073,5.272 	"/>
</g>
</svg>
