<?xml version="1.0" encoding="utf-8"?>
<!-- Generator: Adobe Illustrator 16.0.0, SVG Export Plug-In . SVG Version: 6.00 Build 0)  -->
<!DOCTYPE svg PUBLIC "-//W3C//DTD SVG 1.1//EN" "http://www.w3.org/Graphics/SVG/1.1/DTD/svg11.dtd">
<svg version="1.1" id="Layer_1" xmlns="http://www.w3.org/2000/svg" xmlns:xlink="http://www.w3.org/1999/xlink" x="0px" y="0px"
	 width="81px" height="81px" viewBox="0 0 81 81" enable-background="new 0 0 81 81" xml:space="preserve">
<g>
	<path fill="#FFFFFF" d="M56.023,5.681c0.566-0.052,1.123-0.357,1.666-0.533c0.367-0.117,1.574-0.801,1.644-0.828
		c0.834-0.547,2.408-1.797,3.062-2.321c0.186-0.148,0.346-0.668,0.248-1.018c-0.054-0.181-0.504-0.374-0.754-0.368
		C34.579,1.39,12.15,16.835,7.578,36.99l0.508-0.406C14.575,20.153,33.243,7.789,56.023,5.681z"/>
	<path fill="#FFFFFF" d="M2.357,61.016C1.871,60.406,1.61,59.93,1.61,59.373c0-0.781,0.616-1.207,1.572-1.207
		c0.755,0,1.423,0.238,1.645,0.426c0.258-0.357,0.344-0.695,0.344-0.951c0-0.205-0.617-0.697-2.312-0.697
		c-1.727,0-2.754,0.935-2.754,2.531c0,0.711,0.292,1.406,0.906,2.168l1.848,2.373c0.68,0.832,0.907,1.389,0.907,2.137
		c0,1.066-0.502,1.765-1.524,1.765c-0.853,0-1.435-0.272-1.777-0.594c-0.223,0.319-0.377,0.944-0.377,1.131
		c0,0.28,0.684,0.854,2.203,0.854c2.297,0,2.982-1.457,2.982-3.205c0-1.019-0.257-1.779-0.942-2.576L2.357,61.016z"/>
	<path fill="#FFFFFF" d="M7.851,58.574c0,0,0.221,0.732,0.546,0.732c0.582-0.31,2.089-1.353,2.342-1.662
		c-0.062-0.394-0.298-0.996-0.6-0.996C10.006,56.648,8.636,57.725,7.851,58.574z"/>
	<path fill="#FFFFFF" d="M11.341,63.143c0-1.838-0.68-2.819-2.07-2.819c-1.523,0-2.982,0.534-2.982,4.993
		c0,3.437,1.108,3.99,2.69,3.99c1.27,0,2.266-0.381,2.266-0.602c0-0.35-0.03-0.922-0.11-1.18c-0.539,0.324-1.181,0.533-2.002,0.533
		c-0.924,0-1.401-0.312-1.454-2.384c0.822,0,2.396-0.034,3.488-0.272C11.293,64.785,11.341,63.91,11.341,63.143z M10.006,64.355
		c-0.599,0.172-1.659,0.207-2.328,0.188c0.104-2.383,0.737-2.998,1.438-2.998c0.735,0,0.958,0.515,0.974,1.746
		C10.09,63.619,10.075,64.049,10.006,64.355z"/>
	<path fill="#FFFFFF" d="M16.71,68.52c0-0.201-0.05-0.539-0.135-0.844c-0.322,0.203-0.864,0.389-1.32,0.389
		c-1.045,0-1.52-0.354-1.52-3.071c0-3.007,0.877-3.447,1.724-3.447c0.473,0,0.845,0.154,1.132,0.308
		c0.103-0.287,0.152-0.711,0.152-0.935c0-0.256-0.711-0.596-1.403-0.596c-1.402,0-2.997,0.545-2.997,4.67
		c0,3.864,0.884,4.307,2.762,4.307C15.932,69.299,16.71,68.857,16.71,68.52z"/>
	<path fill="#FFFFFF" d="M21.509,60.861v6.889c-0.357,0.236-0.833,0.318-1.209,0.318c-0.901,0-1.072-0.504-1.072-1.834v-5.642
		c-1.392,0-1.392,0-1.392,0.269v5.305c0,2.076,0.299,3.127,2.517,3.127c0.917,0,1.883-0.189,2.526-0.553v-8.146
		C21.475,60.594,21.509,60.594,21.509,60.861z"/>
	<path fill="#FFFFFF" d="M25.845,68.738l0.016-6.652c0.321-0.322,0.743-0.455,1.114-0.455c0.321,0,0.559,0.066,0.812,0.203
		c0.118-0.287,0.152-0.66,0.152-0.898c0-0.422-0.321-0.625-1.183-0.625c-0.827,0-1.52,0.203-2.297,0.763v7.952
		C25.861,69.025,25.845,69.025,25.845,68.738z"/>
	<path fill="#FFFFFF" d="M29.716,56.656c-0.535,0-0.771,0.406-0.771,1.014c-0.017,0.795,0.251,1.049,0.687,1.064
		c0.503,0,0.755-0.404,0.771-1.099C30.403,56.928,30.237,56.656,29.716,56.656z"/>
	<path fill="#FFFFFF" d="M28.961,61.203v7.822c1.376,0,1.392,0,1.392-0.287v-8.162C29.248,60.576,28.961,60.576,28.961,61.203z"/>
	<path fill="#FFFFFF" d="M35.706,68.801c0-0.318-0.051-0.672-0.103-0.861c-0.354,0.152-0.506,0.259-0.979,0.259
		c-0.609,0-0.609-0.623-0.609-1.365v-5.131h1.454c0.238,0,0.238-0.111,0.238-1.109h-1.691v-3.098c-1.126,0-1.379,0-1.379,0.481
		v2.615h-0.861c-0.26,0-0.276,0.127-0.276,1.109h1.137l0.02,4.977c0,1.553,0,2.629,1.596,2.629
		C34.91,69.307,35.706,69.18,35.706,68.801z"/>
	<path fill="#FFFFFF" d="M41.665,68.705c0-0.35-0.032-0.922-0.108-1.18c-0.539,0.324-1.183,0.533-2.003,0.533
		c-0.923,0-1.401-0.312-1.453-2.384c0.821,0,2.396-0.034,3.487-0.272c0.127-0.617,0.175-1.492,0.175-2.26
		c0-1.838-0.681-2.82-2.072-2.82c-1.522,0-2.98,0.535-2.98,4.994c0,3.436,1.108,3.99,2.689,3.99
		C40.67,69.307,41.665,68.926,41.665,68.705z M39.537,61.547c0.735,0,0.958,0.514,0.974,1.746c0,0.326-0.015,0.756-0.086,1.062
		c-0.599,0.172-1.658,0.207-2.325,0.188C38.201,62.162,38.834,61.547,39.537,61.547z"/>
	<path fill="#FFFFFF" d="M41.159,57.645c-0.063-0.393-0.3-0.996-0.601-0.996c-0.134,0-1.501,1.076-2.289,1.927
		c0,0,0.223,0.731,0.548,0.731C39.398,58.998,40.907,57.955,41.159,57.645z"/>
	<path fill="#FFFFFF" d="M49.593,61.561c0.638,0,1.136,0.152,1.636,0.457c0.148-0.203,0.299-0.553,0.299-0.76
		c0-0.299-0.448-0.807-2.289-0.807c-1.709,0-2.604,0.648-2.604,1.85c0,0.59,0.271,1.18,0.931,1.805l1.707,1.617
		c0.506,0.438,0.677,0.859,0.677,1.246c0,0.74-0.474,1.096-1.368,1.096c-0.661,0-1.186-0.116-1.674-0.403
		c-0.168,0.287-0.254,0.674-0.254,0.93c0,0.423,0.861,0.709,2.062,0.709c1.716,0,2.765-0.846,2.765-2.381
		c0-0.812-0.266-1.349-0.981-2.053l-1.664-1.521c-0.457-0.438-0.59-0.691-0.59-0.977C48.241,61.83,48.797,61.561,49.593,61.561z"/>
	<path fill="#FFFFFF" d="M55.154,60.451c-1.758,0-2.801,1.297-2.801,4.393c0,3.787,0.922,4.463,2.697,4.463s2.75-1.365,2.75-4.512
		C57.802,61.369,56.93,60.451,55.154,60.451z M55.052,68.197c-0.772,0-1.19-0.525-1.19-3.318c0-2.641,0.52-3.318,1.26-3.318
		c0.789,0,1.178,0.56,1.178,3.252C56.298,67.453,55.773,68.197,55.052,68.197z"/>
	<path fill="#FFFFFF" d="M63.044,68.52c0-0.201-0.051-0.539-0.135-0.844c-0.322,0.203-0.863,0.389-1.32,0.389
		c-1.045,0-1.521-0.354-1.521-3.071c0-3.007,0.88-3.447,1.724-3.447c0.476,0,0.847,0.154,1.133,0.308
		c0.103-0.287,0.152-0.711,0.152-0.935c0-0.256-0.711-0.596-1.404-0.596c-1.401,0-2.996,0.545-2.996,4.67
		c0,3.864,0.886,4.307,2.763,4.307C62.268,69.299,63.044,68.857,63.044,68.52z"/>
	<path fill="#FFFFFF" d="M65.562,68.738v-8.162c-1.105,0-1.392,0-1.392,0.627v7.822C65.544,69.025,65.562,69.025,65.562,68.738z"/>
	<path fill="#FFFFFF" d="M64.841,58.734c0.505,0,0.755-0.404,0.771-1.099c0-0.709-0.166-0.979-0.687-0.979
		c-0.534,0-0.771,0.406-0.771,1.014C64.139,58.465,64.404,58.719,64.841,58.734z"/>
	<path fill="#FFFFFF" d="M70.021,60.311c-1.528,0-2.625,0.205-2.871,0.381c-0.114,0.078-0.147,0.236-0.147,0.41
		c0,0.111,0.017,0.562,0.181,0.859c0.508-0.244,1.571-0.4,2.313-0.4c0.51,0,0.873,0.209,0.873,1.029v1.449
		c-0.33-0.16-0.843-0.207-1.252-0.207c-1.052,0-2.132,0.395-2.132,2.789c0,2.602,1.146,2.701,2.347,2.686
		c1.069,0,1.865-0.262,2.321-0.539c0,0,0.101-2.465,0.101-5.442v-1.015C71.755,60.816,71.113,60.311,70.021,60.311z M70.32,67.914
		c-0.147,0.176-0.561,0.283-0.891,0.283c-0.643,0-1.053-0.07-1.053-1.592c0-1.56,0.559-1.806,1.219-1.806
		c0.23,0,0.562,0.033,0.773,0.156C70.37,66.234,70.32,67.914,70.32,67.914z"/>
	<path fill="#FFFFFF" d="M73.055,57.271v11.754c1.385,0,1.368,0,1.368-0.287v-12.09C73.325,56.648,73.055,56.648,73.055,57.271z"/>
	<path fill="#FFFFFF" d="M78.704,68.059c-0.922,0-1.402-0.312-1.453-2.383c0.819,0,2.396-0.035,3.485-0.273
		c0.127-0.616,0.177-1.491,0.177-2.26c0-1.838-0.683-2.819-2.07-2.819c-1.522,0-2.981,0.534-2.981,4.993
		c0,3.437,1.106,3.99,2.688,3.99c1.271,0,2.269-0.381,2.269-0.602c0-0.35-0.033-0.922-0.113-1.18
		C80.171,67.85,79.523,68.059,78.704,68.059z M78.688,61.547c0.733,0,0.959,0.514,0.977,1.746c0,0.326-0.018,0.756-0.086,1.062
		c-0.6,0.172-1.658,0.207-2.326,0.188C77.354,62.162,77.984,61.547,78.688,61.547z"/>
	<polygon fill="#FFFFFF" points="14.674,71.947 13.791,71.947 13.791,79.475 17.722,79.475 17.722,78.672 14.674,78.672 	"/>
	<path fill="#FFFFFF" d="M21.856,78.85c-0.062,0-0.115-0.006-0.156-0.016c-0.128-0.064-0.126-0.217-0.125-0.352l0.001-3.228
		c0,0,0-0.008,0-0.021c0.018-0.467-0.101-0.834-0.351-1.094c-0.058-0.061-0.147-0.089-0.218-0.136
		c-0.023-0.016-0.045-0.028-0.07-0.044c-0.241-0.136-0.524-0.229-0.894-0.229c-0.6,0-1.024,0.137-1.302,0.424
		c-0.268,0.279-0.39,0.688-0.37,1.248l0.001,0.025h0.763v-0.027c-0.005-0.354,0.022-0.619,0.174-0.771
		c0.117-0.121,0.31-0.176,0.605-0.176c0.617,0,0.848,0.227,0.848,0.838v0.082c0.001,0.248,0.003,0.426-0.14,0.535
		c-0.055,0.043-0.472,0.209-0.876,0.371c-0.292,0.117-0.594,0.238-0.78,0.32c-0.734,0.323-0.813,1.063-0.813,1.371
		c0,1.155,0.435,1.651,1.453,1.651c0.49,0,1.005-0.36,1.225-0.853c0.082,0.638,0.317,0.746,0.797,0.746c0.061,0,0.131,0,0.22-0.004
		l0.009-0.002c0.06-0.02,0.121-0.031,0.174-0.039l0.024-0.004v-0.633l-0.031,0.004C21.972,78.846,21.913,78.85,21.856,78.85z
		 M19.774,78.9c-0.621,0-0.749-0.355-0.749-0.89c0-0.266,0.062-0.741,0.473-0.93c0.134-0.063,0.272-0.127,0.406-0.188
		c0.269-0.119,0.544-0.242,0.798-0.387v1.295C20.703,78.703,20.033,78.9,19.774,78.9z"/>
	<polygon fill="#FFFFFF" points="27.941,78.771 26.235,71.969 26.229,71.947 25.253,71.947 27.405,79.455 27.411,79.475 
		28.48,79.475 30.648,71.947 29.672,71.947 	"/>
	<rect x="31.307" y="71.947" fill="#FFFFFF" width="0.844" height="1.051"/>
	<rect x="31.307" y="73.881" fill="#FFFFFF" width="0.844" height="5.594"/>
	<path fill="#FFFFFF" d="M36.693,76.746c-0.003-0.092-0.006-0.186-0.008-0.283c-0.027-1.217-0.062-2.73-1.754-2.73
		c-1.672,0-1.802,2.246-1.802,2.935c0,1.99,0.596,2.959,1.821,2.959c0.494,0,0.912-0.166,1.209-0.478
		c0.347-0.362,0.521-0.912,0.493-1.547l-0.001-0.024h-0.794l0.002,0.03c0.035,0.439-0.064,0.82-0.271,1.045
		c-0.152,0.164-0.359,0.248-0.618,0.248c-0.956,0-0.961-1.09-0.965-1.885c0-0.084,0-0.166-0.002-0.24h2.69V76.746z M35.818,76.072
		h-1.813l0.001-0.025c0.03-0.672,0.07-1.592,0.936-1.592c0.817,0,0.849,0.859,0.872,1.488
		C35.814,75.986,35.816,76.029,35.818,76.072z"/>
	<path fill="#FFFFFF" d="M44.002,76.746c-0.004-0.094-0.005-0.188-0.009-0.283c-0.026-1.217-0.062-2.73-1.755-2.73
		c-1.67,0-1.8,2.246-1.8,2.935c0,1.99,0.596,2.959,1.82,2.959c0.494,0,0.912-0.166,1.21-0.478c0.347-0.362,0.522-0.912,0.493-1.547
		l-0.002-0.024h-0.794l0.003,0.03c0.034,0.439-0.066,0.82-0.271,1.045c-0.151,0.164-0.358,0.248-0.617,0.248
		c-0.956,0-0.961-1.092-0.965-1.887c0-0.084,0-0.164-0.002-0.238h2.689V76.746z M41.312,76.072l0.002-0.025
		c0.029-0.672,0.07-1.592,0.936-1.592c0.816,0,0.85,0.859,0.872,1.488c0.002,0.043,0.002,0.086,0.005,0.129H41.312z"/>
	<path fill="#FFFFFF" d="M47.26,73.732c-0.546,0-0.96,0.217-1.376,0.729v-0.58h-0.823v5.594h0.844V75.74
		c0-0.434,0.057-0.719,0.35-0.984c0.204-0.195,0.473-0.301,0.756-0.301c0.553,0,0.801,0.287,0.801,0.938v4.082h0.844v-4.301
		C48.652,74.244,48.157,73.732,47.26,73.732z"/>
	<path fill="#FFFFFF" d="M55.046,71.947h-1.989v7.527h0.883v-3.166h0.469c0.566,0,1.422,0,1.945-0.224
		c0.703-0.319,1.071-1.021,1.071-2.026c0-0.689-0.207-1.234-0.616-1.615C56.46,72.109,55.884,71.947,55.046,71.947z M53.938,72.752
		h0.83c0.049-0.002,0.096-0.002,0.146-0.002c0.959,0,1.599,0.225,1.599,1.328c0.01,1.199-0.57,1.414-1.794,1.426h-0.778v-2.752
		H53.938z"/>
	<rect x="58.354" y="71.947" fill="#FFFFFF" width="0.846" height="7.527"/>
	<path fill="#FFFFFF" d="M63.186,77.465c0,0.277-0.039,0.67-0.228,0.959c-0.205,0.303-0.541,0.477-0.922,0.477
		c-0.563,0-0.679-0.264-0.679-0.688v-4.332h-0.844v4.301c0,0.943,0.471,1.441,1.361,1.441c0.553,0,1.037-0.305,1.309-0.826v0.678
		h0.844v-5.594h-0.844v3.584H63.186z"/>
	<path fill="#FFFFFF" d="M67.343,76.396c-0.096-0.041-0.188-0.082-0.284-0.123c-0.084-0.037-0.172-0.07-0.257-0.103
		c-0.459-0.174-0.854-0.323-0.854-0.907c0-0.537,0.284-0.81,0.848-0.81c0.312,0,0.529,0.067,0.664,0.209
		c0.144,0.147,0.201,0.381,0.185,0.728v0.03h0.823v-0.028c0.003-0.14-0.03-0.248-0.049-0.371c-0.002-0.015-0.004-0.028-0.006-0.043
		c-0.034-0.205-0.097-0.385-0.187-0.539c-0.018-0.028-0.031-0.06-0.051-0.086c-0.039-0.057-0.059-0.129-0.105-0.179
		c-0.291-0.295-0.741-0.444-1.344-0.444c-0.988,0-1.651,0.641-1.651,1.592c0,1.012,0.567,1.303,1.373,1.6
		c0.112,0.049,0.239,0.09,0.358,0.131c0.484,0.164,0.986,0.33,0.986,0.939c0,0.611-0.336,0.908-1.027,0.908
		c-0.313,0-0.541-0.076-0.688-0.232c-0.164-0.17-0.236-0.443-0.22-0.834l0.002-0.029h-0.807v0.088c0,0.354-0.002,0.719,0.314,1.142
		c0.303,0.437,0.898,0.592,1.357,0.592c0.014,0,0.026-0.002,0.041-0.002h0.024c1.142,0,1.877-0.679,1.877-1.729
		C68.669,76.963,68.023,76.688,67.343,76.396z"/>
	<path fill="#FFFFFF" d="M20.439,39.715c1.685-0.089,3.024-1.468,3.024-3.175c0-1.764-1.428-3.191-3.193-3.191
		c-1.764,0-3.193,1.428-3.193,3.191c0,1.676,1.294,3.033,2.935,3.166c-2.271,0.091-4.088,1.944-4.088,4.239v6.559v0.006
		c0,0.391,0.318,0.709,0.709,0.709h7.097c0.392,0,0.71-0.318,0.71-0.709v-0.004l-0.001-6.561
		C24.439,41.682,22.669,39.851,20.439,39.715z"/>
	<path fill="#FFFFFF" d="M35.097,50.51v-0.004v-9.93c0-2.185-1.653-3.965-3.773-4.208c1.574-0.197,2.797-1.525,2.797-3.153
		c0-1.764-1.431-3.19-3.194-3.19c-1.765,0-3.195,1.427-3.195,3.19c0,1.599,1.177,2.91,2.709,3.145
		c-2.165,0.203-3.862,2.002-3.862,4.217v9.928v0.006c0,0.392,0.318,0.71,0.711,0.71h7.097C34.779,51.219,35.097,50.9,35.097,50.51z"
		/>
	<path fill="#FFFFFF" d="M45.755,50.51v-5.146c0-2.29-1.819-4.146-4.092-4.237c1.642-0.133,2.937-1.492,2.937-3.167
		c0-1.763-1.431-3.192-3.193-3.192c-1.762,0-3.192,1.43-3.192,3.192c0,1.706,1.341,3.086,3.024,3.176c-2.229,0.136-4,1.968-4,4.229
		v5.143v0.004c0,0.392,0.318,0.71,0.709,0.71h7.098C45.436,51.219,45.755,50.9,45.755,50.51z"/>
	<path fill="#FFFFFF" d="M47.893,43.77v6.74c0,0.391,0.317,0.709,0.713,0.709H55.7c0.393,0,0.709-0.318,0.709-0.709v-6.74
		c0-2.187-1.653-3.968-3.776-4.208c1.576-0.195,2.803-1.523,2.803-3.152c0-1.764-1.431-3.192-3.193-3.192
		c-1.766,0-3.195,1.429-3.195,3.192c0,1.598,1.18,2.91,2.715,3.144C49.596,39.751,47.893,41.552,47.893,43.77z"/>
	<path fill="#FFFFFF" d="M58.975,51.219h7.096c0.391,0,0.709-0.318,0.709-0.709l0.002-2.484c0-2.186-1.657-3.965-3.779-4.207
		c1.578-0.194,2.803-1.523,2.803-3.151c0-1.764-1.43-3.195-3.195-3.195c-1.764,0-3.19,1.431-3.19,3.195
		c0,1.599,1.179,2.91,2.712,3.144c-2.165,0.2-3.865,2-3.865,4.217v2.483C58.264,50.9,58.581,51.219,58.975,51.219z"/>
</g>
</svg>
