<?xml version="1.0" encoding="utf-8"?>
<!-- Generator: Adobe Illustrator 16.0.0, SVG Export Plug-In . SVG Version: 6.00 Build 0)  -->
<!DOCTYPE svg PUBLIC "-//W3C//DTD SVG 1.1//EN" "http://www.w3.org/Graphics/SVG/1.1/DTD/svg11.dtd">
<svg version="1.1" id="Layer_1" xmlns="http://www.w3.org/2000/svg" xmlns:xlink="http://www.w3.org/1999/xlink" x="0px" y="0px"
	 width="521px" height="200px" viewBox="0 0 521 200" enable-background="new 0 0 521 200" xml:space="preserve">
<g>
	<path fill="#FFFFFF" d="M120.6,18.247v35.278c0,3.06,1.5,4.38,3.72,4.38c1.56,0,2.7-0.54,3.9-1.32l0.54,3.3
		c-1.32,0.84-3.42,1.56-5.76,1.56c-3.84,0-6.48-2.04-6.48-7.08V18.247H120.6z"/>
	<path fill="#FFFFFF" d="M162.898,53.945c0,2.4,0.72,3.96,2.88,3.96c1.199,0,2.279-0.54,3.479-1.32l0.48,3.3
		c-1.32,0.84-3.36,1.56-5.28,1.56c-3.24,0-4.92-1.68-5.399-4.68c-2.34,2.52-6.24,4.68-10.859,4.68c-9.24,0-15.3-6.72-15.3-16.14
		c0-9.54,6.06-16.379,15.3-16.379c4.499,0,8.279,1.92,10.619,4.26v-3.72h4.08V53.945z M158.818,36.846
		c-1.92-2.16-5.52-4.26-9.66-4.26c-7.379,0-12.119,5.22-12.119,12.719c0,7.32,4.74,12.479,12.119,12.479c4.08,0,7.68-2.1,9.66-4.2
		V36.846z"/>
</g>
<g>
	<path fill="#FFFFFF" d="M201.517,36.651c-6.769-1.656-10.945-5.544-10.945-11.737c0-7.128,5.977-13.681,18.938-13.681
		c6.624,0,13.177,1.944,16.777,3.96l-1.513,4.608c-3.312-2.088-9.864-4.032-15.409-4.032c-9.505,0-13.753,4.248-13.753,8.856
		c0,4.032,2.809,6.336,7.849,7.561l10.44,2.592c8.425,2.088,13.25,5.473,13.25,12.313c0,8.857-7.85,14.474-19.227,14.474
		c-6.912,0-13.465-2.448-16.561-4.32l1.224-4.608c3.097,1.872,9.073,4.392,15.409,4.392c8.353,0,14.113-3.744,14.113-9.577
		c0-4.32-3.528-6.697-10.152-8.281L201.517,36.651z"/>
	<path fill="#FFFFFF" d="M270.927,56.741c-3.889,3.096-9.073,5.113-15.409,5.113c-14.186,0-20.234-8.929-20.234-19.73
		c0-10.945,7.561-19.946,19.658-19.946c11.449,0,16.562,7.129,16.562,15.697c0,2.088-0.288,4.537-0.648,5.905h-30.603
		c0.504,7.849,5.185,13.897,15.409,13.897c5.545,0,10.009-2.16,13.178-4.608L270.927,56.741z M266.822,37.155
		c0-5.688-3.601-10.801-11.953-10.801c-8.856,0-14.041,6.193-14.473,13.465h26.21C266.679,39.027,266.822,38.091,266.822,37.155z
		 M256.67,17.354h-4.465l5.904-9.865h5.041L256.67,17.354z"/>
	<path fill="#FFFFFF" d="M315.351,56.597c-3.961,3.168-9.434,5.257-15.481,5.257c-14.186,0-20.162-8.425-20.162-19.73
		c0-11.521,7.705-19.946,19.729-19.946c10.297,0,15.914,5.761,16.273,14.257l-4.464,1.008c-0.36-6.553-4.104-10.873-11.81-10.873
		c-9.145,0-14.688,6.553-14.688,15.409c0,8.713,4.464,15.481,15.625,15.481c4.608,0,9.433-2.16,12.961-4.824L315.351,56.597z"/>
	<path fill="#FFFFFF" d="M358.692,23.186v29.378c0,2.808,0.864,4.752,3.385,4.752c1.368,0,2.736-0.648,4.248-1.584l0.576,3.96
		c-1.584,1.081-4.104,1.873-6.408,1.873c-4.177,0-6.337-2.304-6.697-6.769c-2.736,4.248-7.561,6.769-13.753,6.769
		c-9.721,0-14.401-6.841-14.401-16.562V23.186h4.896v21.17c0,7.632,3.24,12.673,11.017,12.673c6.409,0,10.657-4.104,12.241-8.569
		V23.186H358.692z"/>
</g>
<g>
	<path fill="#FFFFFF" d="M118.521,86.444h25.84c10.561,0,20.881,5.2,20.881,17.92c0,8.561-6,14.72-14.24,16.4
		c4.88,4.479,9.68,9.28,14.721,9.28c1.76,0,4.08-0.32,5.76-1.04l1.28,10.56c-2.24,1.121-5.521,2.08-9.2,2.08
		c-12.48,0-21.601-15.52-28.721-20.4h-2.88v19.602h-13.44V86.444z M131.961,98.124v13.44h12.16c4.399,0,7.2-2.721,7.2-6.721
		c0-4.16-2.801-6.72-7.2-6.72H131.961z"/>
	<path fill="#FFFFFF" d="M181.159,140.846V86.444h43.681v11.68h-30.881v9.36H219v11.28h-25.041v10.4h30.881v11.681H181.159z"/>
	<path fill="#FFFFFF" d="M283.879,132.846c-4.88,4.64-13.28,8.799-22.32,8.799c-16.08,0-28.16-10.399-28.16-27.92
		c0-17.68,12.08-28.081,28.16-28.081c14.08,0,21.921,7.84,22.24,20.561l-12.319,2.56c-0.08-6.561-3.12-10.72-10.081-10.72
		c-8.32,0-14.08,5.68-14.08,15.68c0,9.84,5.76,15.521,14.561,15.521c6.32,0,11.92-2.88,15.76-6.4L283.879,132.846z"/>
	<path fill="#FFFFFF" d="M295.317,86.444h25.84c10.561,0,20.881,5.2,20.881,17.92c0,8.561-6,14.72-14.24,16.4
		c4.88,4.479,9.68,9.28,14.721,9.28c1.76,0,4.08-0.32,5.76-1.04l1.28,10.56c-2.24,1.121-5.521,2.08-9.2,2.08
		c-12.48,0-21.601-15.52-28.721-20.4h-2.88v19.602h-13.44V86.444z M308.758,98.124v13.44h12.16c4.399,0,7.2-2.721,7.2-6.721
		c0-4.16-2.801-6.72-7.2-6.72H308.758z"/>
	<path fill="#FFFFFF" d="M370.597,116.604c0,7.841,4,12.641,11.761,12.641c8,0,12-4.96,12-12.641V86.444h13.44v31.041
		c0,13.041-8.96,24.24-25.44,24.24c-16.24,0-25.201-10.16-25.201-24.24V86.444h13.44V116.604z"/>
	<path fill="#FFFFFF" d="M447.557,98.204v42.642h-13.44V98.204h-16.721v-11.76h46.401v11.76H447.557z"/>
	<path fill="#FFFFFF" d="M473.956,140.846V86.444h43.681v11.68h-30.881v9.36h25.041v11.28h-25.041v10.4h30.881v11.681H473.956z"/>
</g>
<g>
	<path fill="#FFFFFF" d="M14.946,177.1v14.896c0,1.024,0.275,1.625,1.2,1.625c0.449,0,0.925-0.226,1.425-0.551l0.225,1.375
		c-0.55,0.35-1.449,0.65-2.225,0.65c-1.324,0-2.05-0.601-2.274-1.875c-0.975,1.025-2.499,1.875-4.499,1.875
		c-3.824,0-6.398-2.85-6.398-6.799s2.574-6.748,6.398-6.748c1.899,0,3.449,0.799,4.449,1.774V177.1H14.946z M9.198,193.57
		c1.749,0,3.274-0.899,4.049-1.774v-6.898c-0.825-0.925-2.324-1.824-4.049-1.824c-3.05,0-5.074,2.149-5.074,5.224
		C4.124,191.396,6.124,193.57,9.198,193.57z"/>
	<path fill="#FFFFFF" d="M21.225,180.398c-0.851-0.074-1.25-0.625-1.25-1.299c0-0.95,0.5-1.45,1.375-1.45
		c0.899,0,1.399,0.625,1.399,1.45c0,1.475-1.149,4.323-1.675,5.248l-1.024-0.425L21.225,180.398z"/>
	<path fill="#FFFFFF" d="M37.821,181.773v10.197c0,0.975,0.3,1.65,1.175,1.65c0.475,0,0.949-0.226,1.475-0.551l0.199,1.375
		c-0.55,0.375-1.425,0.65-2.225,0.65c-1.449,0-2.199-0.801-2.324-2.35c-0.949,1.475-2.624,2.35-4.773,2.35
		c-3.374,0-4.999-2.375-4.999-5.749v-7.573h1.699v7.348c0,2.65,1.125,4.399,3.824,4.399c2.225,0,3.699-1.425,4.249-2.974v-8.773
		H37.821z"/>
	<path fill="#FFFFFF" d="M45.198,181.773v2.399c0.899-1.624,2.574-2.624,4.773-2.624c3.374,0,4.974,2.499,4.974,5.773v4.648
		c0,1,0.325,1.65,1.2,1.65c0.475,0,0.975-0.226,1.475-0.551l0.2,1.375c-0.575,0.375-1.4,0.65-2.225,0.65c-1.6,0-2.35-0.95-2.35-2.8
		v-4.749c0-2.524-1.225-4.398-3.799-4.398c-2.225,0-3.774,1.5-4.249,3.299v8.398h-1.7v-13.072H45.198z"/>
	<path fill="#FFFFFF" d="M71.821,193.42c-1.351,1.075-3.149,1.775-5.349,1.775c-4.924,0-7.023-3.1-7.023-6.849
		c0-3.799,2.624-6.923,6.823-6.923c3.974,0,5.748,2.475,5.748,5.448c0,0.726-0.1,1.575-0.225,2.05H61.174
		c0.175,2.725,1.799,4.824,5.349,4.824c1.924,0,3.474-0.75,4.573-1.6L71.821,193.42z M70.396,186.622
		c0-1.974-1.25-3.749-4.149-3.749c-3.074,0-4.874,2.149-5.023,4.674h9.098C70.347,187.271,70.396,186.947,70.396,186.622z"/>
	<path fill="#FFFFFF" d="M83.022,184.673c0-1-0.3-1.649-1.199-1.649c-0.5,0-1.05,0.25-1.45,0.524l-0.199-1.35
		c0.375-0.325,1.3-0.649,2.199-0.649c1.574,0,2.324,0.899,2.35,2.699c0.699-1.6,1.699-2.699,3.549-2.699
		c1.225,0,2.024,0.424,2.399,1.049l-0.425,1.45c-0.375-0.575-1.1-0.899-2.175-0.899c-2.024,0-2.874,1.924-3.349,3.898v7.799h-1.7
		V184.673z"/>
	<path fill="#FFFFFF" d="M104.646,193.42c-1.351,1.075-3.149,1.775-5.349,1.775c-4.924,0-7.023-3.1-7.023-6.849
		c0-3.799,2.624-6.923,6.823-6.923c3.974,0,5.748,2.475,5.748,5.448c0,0.726-0.1,1.575-0.225,2.05H93.998
		c0.175,2.725,1.799,4.824,5.349,4.824c1.924,0,3.474-0.75,4.573-1.6L104.646,193.42z M103.221,186.622
		c0-1.974-1.25-3.749-4.149-3.749c-3.074,0-4.874,2.149-5.023,4.674h9.098C103.171,187.271,103.221,186.947,103.221,186.622z"/>
	<path fill="#FFFFFF" d="M110.373,181.773v2.399c0.899-1.624,2.574-2.624,4.773-2.624c3.374,0,4.974,2.499,4.974,5.773v4.648
		c0,1,0.325,1.65,1.2,1.65c0.475,0,0.975-0.226,1.475-0.551l0.2,1.375c-0.575,0.375-1.4,0.65-2.225,0.65c-1.6,0-2.35-0.95-2.35-2.8
		v-4.749c0-2.524-1.225-4.398-3.799-4.398c-2.225,0-3.774,1.5-4.249,3.299v8.398h-1.7v-13.072H110.373z"/>
	<path fill="#FFFFFF" d="M137.021,193.371c-1.374,1.1-3.274,1.824-5.374,1.824c-4.923,0-6.998-2.924-6.998-6.849
		c0-3.999,2.675-6.923,6.849-6.923c3.574,0,5.523,1.999,5.648,4.948l-1.55,0.351c-0.125-2.275-1.425-3.774-4.099-3.774
		c-3.174,0-5.099,2.274-5.099,5.349c0,3.024,1.55,5.373,5.424,5.373c1.6,0,3.273-0.749,4.499-1.674L137.021,193.371z"/>
	<path fill="#FFFFFF" d="M146.746,181.424c4.1,0,6.974,2.949,6.974,6.923c0,3.925-2.874,6.849-6.974,6.849
		c-4.049,0-6.923-2.924-6.923-6.849C139.823,184.373,142.697,181.424,146.746,181.424z M146.746,193.621
		c3.149,0,5.324-2.275,5.324-5.274c0-3.05-2.175-5.349-5.324-5.349c-3.1,0-5.273,2.299-5.273,5.349
		C141.473,191.346,143.646,193.621,146.746,193.621z"/>
	<path fill="#FFFFFF" d="M159.172,181.773v2.399c0.899-1.624,2.574-2.624,4.773-2.624c3.374,0,4.974,2.499,4.974,5.773v4.648
		c0,1,0.325,1.65,1.2,1.65c0.475,0,0.975-0.226,1.475-0.551l0.2,1.375c-0.575,0.375-1.4,0.65-2.225,0.65c-1.6,0-2.35-0.95-2.35-2.8
		v-4.749c0-2.524-1.225-4.398-3.799-4.398c-2.225,0-3.774,1.5-4.249,3.299v8.398h-1.7v-13.072H159.172z"/>
	<path fill="#FFFFFF" d="M176.871,178.449v3.324h5.424v1.399h-5.448v7.648c0,1.825,0.85,2.749,2.449,2.749
		c1.024,0,2.324-0.449,3.099-1.024l0.601,1.35c-1.075,0.7-2.524,1.2-4.175,1.2c-2.299,0-3.674-1.4-3.674-3.975v-7.948h-2.6v-1.399
		h2.625l0.175-3.324H176.871z"/>
	<path fill="#FFFFFF" d="M186.996,184.673c0-1-0.3-1.649-1.199-1.649c-0.5,0-1.05,0.25-1.45,0.524l-0.199-1.35
		c0.375-0.325,1.3-0.649,2.199-0.649c1.574,0,2.324,0.899,2.35,2.699c0.699-1.6,1.699-2.699,3.549-2.699
		c1.225,0,2.024,0.424,2.399,1.049l-0.425,1.45c-0.375-0.575-1.1-0.899-2.175-0.899c-2.024,0-2.874,1.924-3.349,3.898v7.799h-1.7
		V184.673z"/>
	<path fill="#FFFFFF" d="M208.619,193.42c-1.35,1.075-3.149,1.775-5.35,1.775c-4.923,0-7.022-3.1-7.022-6.849
		c0-3.799,2.624-6.923,6.823-6.923c3.974,0,5.748,2.475,5.748,5.448c0,0.726-0.1,1.575-0.225,2.05h-10.622
		c0.175,2.725,1.799,4.824,5.349,4.824c1.924,0,3.474-0.75,4.573-1.6L208.619,193.42z M207.194,186.622
		c0-1.974-1.25-3.749-4.149-3.749c-3.074,0-4.874,2.149-5.023,4.674h9.098C207.145,187.271,207.194,186.947,207.194,186.622z"/>
	<path fill="#FFFFFF" d="M213.372,195.145c-0.851-0.074-1.25-0.624-1.25-1.299c0-0.95,0.5-1.449,1.375-1.449
		c0.899,0,1.399,0.624,1.399,1.449c0,1.475-1.149,4.324-1.675,5.248l-1.024-0.424L213.372,195.145z"/>
	<path fill="#FFFFFF" d="M236.744,193.42c-1.35,1.075-3.149,1.775-5.35,1.775c-4.923,0-7.022-3.1-7.022-6.849
		c0-3.799,2.624-6.923,6.823-6.923c3.974,0,5.748,2.475,5.748,5.448c0,0.726-0.1,1.575-0.225,2.05h-10.622
		c0.175,2.725,1.799,4.824,5.349,4.824c1.924,0,3.474-0.75,4.573-1.6L236.744,193.42z M235.319,186.622
		c0-1.974-1.25-3.749-4.149-3.749c-3.074,0-4.874,2.149-5.023,4.674h9.098C235.27,187.271,235.319,186.947,235.319,186.622z
		 M231.795,179.749h-1.55l2.05-3.425h1.749L231.795,179.749z"/>
	<path fill="#FFFFFF" d="M252.168,193.371c-1.375,1.1-3.274,1.824-5.373,1.824c-4.924,0-6.999-2.924-6.999-6.849
		c0-3.999,2.675-6.923,6.849-6.923c3.574,0,5.523,1.999,5.648,4.948l-1.55,0.351c-0.125-2.275-1.425-3.774-4.099-3.774
		c-3.174,0-5.099,2.274-5.099,5.349c0,3.024,1.55,5.373,5.424,5.373c1.6,0,3.273-0.749,4.499-1.674L252.168,193.371z"/>
	<path fill="#FFFFFF" d="M256.896,184.673c0-1-0.3-1.649-1.199-1.649c-0.5,0-1.05,0.25-1.45,0.524l-0.199-1.35
		c0.375-0.325,1.3-0.649,2.199-0.649c1.574,0,2.324,0.899,2.35,2.699c0.699-1.6,1.699-2.699,3.549-2.699
		c1.225,0,2.024,0.424,2.399,1.049l-0.425,1.45c-0.375-0.575-1.1-0.899-2.175-0.899c-2.024,0-2.874,1.924-3.349,3.898v7.799h-1.7
		V184.673z"/>
	<path fill="#FFFFFF" d="M268.295,176.899c0.7,0,1.175,0.3,1.175,1.149c0,0.825-0.475,1.15-1.175,1.15
		c-0.75,0-1.225-0.325-1.225-1.15C267.07,177.199,267.545,176.899,268.295,176.899z M269.12,191.971c0,0.975,0.3,1.65,1.199,1.65
		c0.5,0,1.05-0.275,1.425-0.551l0.225,1.375c-0.374,0.3-1.324,0.65-2.224,0.65c-1.575,0-2.325-0.95-2.325-2.8v-10.522h1.7V191.971z"
		/>
	<path fill="#FFFFFF" d="M275.796,184.648c0-1.025-0.275-1.625-1.2-1.625c-0.475,0-0.949,0.175-1.449,0.5l-0.2-1.35
		c0.575-0.375,1.399-0.65,2.199-0.65c1.6,0,2.35,0.925,2.35,2.799v4.824c0,2.824,1.6,4.374,4.074,4.374
		c2.524,0,4.499-1.825,4.499-4.924c0-2.925-0.925-5.573-1.45-6.823h1.8c0.4,1.05,1.35,3.799,1.35,6.898
		c0,3.874-2.6,6.424-6.198,6.424c-3.574,0-5.773-2.175-5.773-5.749V184.648z"/>
	<path fill="#FFFFFF" d="M297.844,181.424c4.1,0,6.974,2.949,6.974,6.923c0,3.925-2.874,6.849-6.974,6.849
		c-4.049,0-6.923-2.924-6.923-6.849C290.921,184.373,293.795,181.424,297.844,181.424z M297.844,193.621
		c3.149,0,5.324-2.275,5.324-5.274c0-3.05-2.175-5.349-5.324-5.349c-3.1,0-5.273,2.299-5.273,5.349
		C292.57,191.346,294.744,193.621,297.844,193.621z"/>
	<path fill="#FFFFFF" d="M310.27,181.773v2.399c0.899-1.624,2.574-2.624,4.773-2.624c3.374,0,4.974,2.499,4.974,5.773v4.648
		c0,1,0.325,1.65,1.2,1.65c0.475,0,0.975-0.226,1.475-0.551l0.2,1.375c-0.575,0.375-1.4,0.65-2.225,0.65c-1.6,0-2.35-0.95-2.35-2.8
		v-4.749c0-2.524-1.225-4.398-3.799-4.398c-2.225,0-3.774,1.5-4.249,3.299v8.398h-1.7v-13.072H310.27z"/>
	<path fill="#FFFFFF" d="M334.118,184.023c-1.05-0.525-2.75-1-4.249-1c-2.149,0-3.649,0.949-3.649,2.424
		c0,1.199,0.774,1.5,2.324,1.875l2.875,0.649c2.124,0.476,3.299,1.399,3.299,3.199c0,2.274-1.8,3.925-5.023,3.925
		c-2.2,0-3.899-0.625-4.874-1.125l0.375-1.5c0.999,0.525,2.549,1.175,4.424,1.175c2.225,0,3.424-1.024,3.424-2.35
		c0-1.124-1.024-1.55-2.475-1.874l-2.774-0.625c-2.099-0.5-3.299-1.3-3.299-3.25c0-2.324,2.1-3.998,5.474-3.998
		c1.649,0,3.649,0.5,4.599,0.975L334.118,184.023z"/>
	<path fill="#FFFFFF" d="M346.444,181.773v2.399c0.899-1.624,2.574-2.624,4.773-2.624c3.374,0,4.974,2.499,4.974,5.773v4.648
		c0,1,0.325,1.65,1.2,1.65c0.475,0,0.975-0.226,1.475-0.551l0.2,1.375c-0.575,0.375-1.4,0.65-2.225,0.65c-1.6,0-2.35-0.95-2.35-2.8
		v-4.749c0-2.524-1.225-4.398-3.799-4.398c-2.225,0-3.774,1.5-4.249,3.299v8.398h-1.7v-13.072H346.444z"/>
	<path fill="#FFFFFF" d="M367.618,181.424c4.099,0,6.974,2.949,6.974,6.923c0,3.925-2.875,6.849-6.974,6.849
		c-4.049,0-6.923-2.924-6.923-6.849C360.695,184.373,363.569,181.424,367.618,181.424z M367.618,193.621
		c3.149,0,5.324-2.275,5.324-5.274c0-3.05-2.175-5.349-5.324-5.349c-3.099,0-5.273,2.299-5.273,5.349
		C362.345,191.346,364.52,193.621,367.618,193.621z"/>
	<path fill="#FFFFFF" d="M380.818,178.449v3.324h5.424v1.399h-5.448v7.648c0,1.825,0.85,2.749,2.449,2.749
		c1.024,0,2.324-0.449,3.099-1.024l0.601,1.35c-1.075,0.7-2.524,1.2-4.175,1.2c-2.299,0-3.674-1.4-3.674-3.975v-7.948h-2.6v-1.399
		h2.625l0.175-3.324H380.818z"/>
	<path fill="#FFFFFF" d="M390.943,184.673c0-1-0.3-1.649-1.199-1.649c-0.5,0-1.05,0.25-1.45,0.524l-0.199-1.35
		c0.375-0.325,1.3-0.649,2.199-0.649c1.574,0,2.324,0.899,2.35,2.699c0.699-1.6,1.699-2.699,3.549-2.699
		c1.225,0,2.024,0.424,2.399,1.049l-0.425,1.45c-0.375-0.575-1.1-0.899-2.175-0.899c-2.024,0-2.874,1.924-3.349,3.898v7.799h-1.7
		V184.673z"/>
	<path fill="#FFFFFF" d="M412.541,193.42c-1.35,1.075-3.149,1.775-5.35,1.775c-4.923,0-7.022-3.1-7.022-6.849
		c0-3.799,2.624-6.923,6.823-6.923c3.974,0,5.748,2.475,5.748,5.448c0,0.726-0.1,1.575-0.225,2.05h-10.622
		c0.175,2.725,1.799,4.824,5.349,4.824c1.924,0,3.474-0.75,4.573-1.6L412.541,193.42z M411.116,186.622
		c0-1.974-1.25-3.749-4.149-3.749c-3.074,0-4.874,2.149-5.023,4.674h9.098C411.066,187.271,411.116,186.947,411.116,186.622z"/>
	<path fill="#FFFFFF" d="M424.519,177.1v7.073c0.899-1.649,2.574-2.624,4.773-2.624c3.374,0,4.974,2.499,4.974,5.773v4.648
		c0,1,0.325,1.65,1.2,1.65c0.475,0,0.949-0.226,1.475-0.551l0.2,1.375c-0.55,0.35-1.4,0.65-2.225,0.65c-1.6,0-2.35-0.95-2.35-2.8
		v-4.749c0-2.524-1.225-4.398-3.799-4.398c-2.225,0-3.774,1.5-4.249,3.299v8.398h-1.7V177.1H424.519z"/>
	<path fill="#FFFFFF" d="M440.644,176.899c0.7,0,1.175,0.3,1.175,1.149c0,0.825-0.475,1.15-1.175,1.15
		c-0.75,0-1.225-0.325-1.225-1.15C439.419,177.199,439.894,176.899,440.644,176.899z M441.469,191.971c0,0.975,0.3,1.65,1.199,1.65
		c0.5,0,1.05-0.275,1.425-0.551l0.225,1.375c-0.374,0.3-1.324,0.65-2.224,0.65c-1.575,0-2.325-0.95-2.325-2.8v-10.522h1.7V191.971z"
		/>
	<path fill="#FFFFFF" d="M455.842,184.023c-1.05-0.525-2.75-1-4.249-1c-2.149,0-3.649,0.949-3.649,2.424
		c0,1.199,0.774,1.5,2.324,1.875l2.875,0.649c2.124,0.476,3.299,1.399,3.299,3.199c0,2.274-1.8,3.925-5.023,3.925
		c-2.2,0-3.899-0.625-4.874-1.125l0.375-1.5c0.999,0.525,2.549,1.175,4.424,1.175c2.225,0,3.424-1.024,3.424-2.35
		c0-1.124-1.024-1.55-2.475-1.874l-2.774-0.625c-2.099-0.5-3.299-1.3-3.299-3.25c0-2.324,2.1-3.998,5.474-3.998
		c1.649,0,3.649,0.5,4.599,0.975L455.842,184.023z"/>
	<path fill="#FFFFFF" d="M462.817,178.449v3.324h5.424v1.399h-5.448v7.648c0,1.825,0.85,2.749,2.449,2.749
		c1.024,0,2.324-0.449,3.099-1.024l0.601,1.35c-1.075,0.7-2.524,1.2-4.175,1.2c-2.299,0-3.674-1.4-3.674-3.975v-7.948h-2.6v-1.399
		h2.625l0.175-3.324H462.817z"/>
	<path fill="#FFFFFF" d="M477.916,181.424c4.1,0,6.974,2.949,6.974,6.923c0,3.925-2.874,6.849-6.974,6.849
		c-4.049,0-6.923-2.924-6.923-6.849C470.993,184.373,473.867,181.424,477.916,181.424z M477.916,193.621
		c3.149,0,5.324-2.275,5.324-5.274c0-3.05-2.175-5.349-5.324-5.349c-3.1,0-5.273,2.299-5.273,5.349
		C472.643,191.346,474.816,193.621,477.916,193.621z"/>
	<path fill="#FFFFFF" d="M489.518,176.899c0.7,0,1.175,0.3,1.175,1.149c0,0.825-0.475,1.15-1.175,1.15
		c-0.75,0-1.225-0.325-1.225-1.15C488.293,177.199,488.768,176.899,489.518,176.899z M490.343,191.971c0,0.975,0.3,1.65,1.199,1.65
		c0.5,0,1.05-0.275,1.425-0.551l0.225,1.375c-0.374,0.3-1.324,0.65-2.224,0.65c-1.575,0-2.325-0.95-2.325-2.8v-10.522h1.7V191.971z"
		/>
	<path fill="#FFFFFF" d="M497.042,184.673c0-1-0.3-1.649-1.199-1.649c-0.5,0-1.05,0.25-1.45,0.524l-0.199-1.35
		c0.375-0.325,1.3-0.649,2.199-0.649c1.574,0,2.324,0.899,2.35,2.699c0.699-1.6,1.699-2.699,3.549-2.699
		c1.225,0,2.024,0.424,2.399,1.049l-0.425,1.45c-0.375-0.575-1.1-0.899-2.175-0.899c-2.024,0-2.874,1.924-3.349,3.898v7.799h-1.7
		V184.673z"/>
	<path fill="#FFFFFF" d="M518.665,193.42c-1.351,1.075-3.149,1.775-5.349,1.775c-4.924,0-7.023-3.1-7.023-6.849
		c0-3.799,2.624-6.923,6.823-6.923c3.974,0,5.748,2.475,5.748,5.448c0,0.726-0.1,1.575-0.225,2.05h-10.622
		c0.175,2.725,1.799,4.824,5.349,4.824c1.924,0,3.474-0.75,4.573-1.6L518.665,193.42z M517.24,186.622
		c0-1.974-1.25-3.749-4.149-3.749c-3.074,0-4.874,2.149-5.023,4.674h9.098C517.19,187.271,517.24,186.947,517.24,186.622z"/>
</g>
<path fill="#FFFFFF" d="M1.779,115.535c0,0,4.132-19.672,22.623-35.606c18.492-15.935,46.131-25.082,67.181-25.082
	c3.147,0,2.95,0.786,2.558,1.376c-0.394,0.591-5.509,5.902-10.427,6.295c-4.918,0.394-27.147,2.951-47.411,14.951
	c-20.261,12-29.9,26.754-33.836,37.771L1.779,115.535z"/>
<path fill="#FFAE00" d="M35.911,109.929c0-2.934,2.378-5.312,5.311-5.312c2.934,0,5.312,2.378,5.312,5.312
	c0,2.933-2.378,5.311-5.312,5.311C38.289,115.239,35.911,112.861,35.911,109.929"/>
<path fill="#FFAE00" d="M41.222,115.239c-3.911,0-7.049,3.171-7.049,7.082v16.712c0,0.604,0.555,1.092,1.157,1.092h11.784
	c0.603,0,1.157-0.488,1.157-1.092v-16.712C48.271,118.41,45.134,115.239,41.222,115.239"/>
<path fill="#DA2E35" d="M17.812,115.436c0-2.932,2.378-5.311,5.312-5.311s5.312,2.379,5.312,5.311c0,2.935-2.378,5.312-5.312,5.312
	S17.812,118.37,17.812,115.436"/>
<path fill="#DA2E35" d="M23.124,120.748c-3.911,0-7.05,3.171-7.05,7.082v11.203c0,0.604,0.555,1.092,1.156,1.092h11.785
	c0.604,0,1.157-0.488,1.157-1.092V127.83C30.173,123.919,27.035,120.748,23.124,120.748"/>
<path fill="#44B737" d="M53.615,117.994c0-2.934,2.378-5.312,5.312-5.312s5.312,2.379,5.312,5.312s-2.378,5.312-5.312,5.312
	S53.615,120.928,53.615,117.994"/>
<path fill="#44B737" d="M58.927,123.305c-3.911,0-7.049,3.171-7.049,7.082v8.646c0,0.604,0.554,1.092,1.156,1.092h11.785
	c0.603,0,1.157-0.488,1.157-1.092v-8.646C65.977,126.476,62.838,123.305,58.927,123.305"/>
<path fill="#00A3D7" d="M71.911,115.239c0-2.933,2.378-5.311,5.311-5.311c2.934,0,5.312,2.378,5.312,5.311
	c0,2.935-2.378,5.312-5.312,5.312C74.289,120.551,71.911,118.174,71.911,115.239"/>
<path fill="#00A3D7" d="M77.222,120.551c-3.911,0-7.049,3.172-7.049,7.082v11.4c0,0.604,0.555,1.092,1.157,1.092h11.784
	c0.603,0,1.157-0.488,1.157-1.092v-11.4C84.271,123.723,81.134,120.551,77.222,120.551"/>
<path fill="#6C5294" d="M89.419,122.518c0-2.932,2.378-5.311,5.312-5.311s5.312,2.379,5.312,5.311c0,2.936-2.378,5.312-5.312,5.312
	S89.419,125.453,89.419,122.518"/>
<path fill="#6C5294" d="M94.73,127.83c-3.911,0-7.049,3.171-7.049,7.082v4.121c0,0.604,0.554,1.092,1.155,1.092h11.786
	c0.603,0,1.156-0.488,1.156-1.092v-4.121C101.779,131.001,98.642,127.83,94.73,127.83"/>
</svg>
