<?xml version="1.0" encoding="utf-8"?>
<!-- Generator: Adobe Illustrator 16.0.0, SVG Export Plug-In . SVG Version: 6.00 Build 0)  -->
<!DOCTYPE svg PUBLIC "-//W3C//DTD SVG 1.1//EN" "http://www.w3.org/Graphics/SVG/1.1/DTD/svg11.dtd">
<svg version="1.1" id="Layer_1" xmlns="http://www.w3.org/2000/svg" xmlns:xlink="http://www.w3.org/1999/xlink" x="0px" y="0px"
	 width="172px" height="76px" viewBox="0 0 172 76" enable-background="new 0 0 172 76" xml:space="preserve">
<g>
	<path fill="#FFFFFF" d="M80.854,52.445c3.677,0,6.185-0.859,8.486-2.062v-3.678c-2.645,1.719-5.531,2.646-8.176,2.646
		c-5.635,0-9.482-3.643-9.482-8.899c0-5.153,3.984-8.968,9.346-8.968c2.714,0,5.188,0.756,8.076,2.44v-3.608
		c-3.198-1.34-5.637-1.924-8.042-1.924c-7.456,0-12.851,5.222-12.851,12.37C68.209,45.676,72.059,52.445,80.854,52.445z"/>
	<path fill="#FFFFFF" d="M104.182,28.564h-2.371L91.742,52.137h3.436l2.955-6.908h9.965l3.127,6.908h3.437L104.182,28.564z
		 M99.439,42.207l3.504-8.487l3.779,8.487H99.439z"/>
	<polygon fill="#FFFFFF" points="120.363,34.098 136.031,52.137 138.916,52.137 138.916,28.702 135.756,28.702 135.756,46.846 
		119.881,28.702 117.201,28.702 117.201,52.137 120.363,52.137 	"/>
	<path fill="#FFFFFF" d="M153.004,46.467c0,1.307-1.201,2.953-3.814,2.953c-2.301,0-4.465-1.201-6.184-3.398v4.261
		c1.959,1.477,4.02,2.163,6.562,2.163c3.779,0,6.562-2.68,6.562-6.356c0-7.456-10.137-7.387-10.137-11.888
		c0-1.65,1.547-2.783,3.711-2.783c1.58,0,3.504,0.549,5.498,2.439v-3.813c-1.647-1.1-3.437-1.649-5.224-1.649
		c-4.295,0-7.11,2.439-7.11,6.254C142.869,41.072,153.004,41.623,153.004,46.467z"/>
	<path fill="#FFFFFF" d="M168.74,46.467c0,1.307-1.203,2.953-3.814,2.953c-2.303,0-4.467-1.201-6.184-3.398v4.261
		c1.957,1.477,4.02,2.163,6.562,2.163c3.778,0,6.562-2.68,6.562-6.356c0-7.456-10.136-7.387-10.136-11.888
		c0-1.65,1.545-2.783,3.709-2.783c1.582,0,3.506,0.549,5.498,2.439v-3.813c-1.649-1.1-3.436-1.649-5.225-1.649
		c-4.293,0-7.111,2.439-7.111,6.254C158.604,41.072,168.74,41.623,168.74,46.467z"/>
	<path fill="#FFFFFF" d="M64.5,42.928V28.702h-3.368v13.642c0,2.199-0.275,3.918-1.478,5.119c-1.064,1.066-2.921,1.891-5.498,1.891
		c-0.011,0-0.021,0-0.031,0V14.382h-5.33V4.399H28.432v9.982H8.301v7.35H0.134v20.362h8.167v18.474h11.097v9.863H39.76v-9.863
		h14.365v-8.123C61.075,52.43,64.5,48.654,64.5,42.928z M53.551,49.328c-1.758-0.119-3.242-0.766-4.445-1.967
		c-1.063-1.066-1.408-2.166-1.408-4.812V28.702h-3.366v14.569c0,6.158,4.468,8.959,9.22,9.153v7.562H39.76v-9.92H19.398v9.92H8.874
		V42.094h11.624V21.731H8.874v-6.776h19.559v9.799h20.363v-9.799h4.756L53.551,49.328L53.551,49.328z"/>
	<path fill="#FFFFFF" d="M59.423,57.773c0,0.649-0.048,1.078-0.143,1.283c-0.095,0.202-0.24,0.354-0.434,0.448
		c-0.195,0.095-0.419,0.142-0.672,0.142c-0.259,0-0.494-0.047-0.705-0.142C57.257,59.411,57.1,59.273,57,59.091
		c-0.102-0.178-0.151-0.534-0.151-1.062v-3.627h-0.71v3.724c0,0.621,0.079,1.062,0.237,1.324c0.159,0.26,0.401,0.45,0.724,0.573
		c0.326,0.125,0.684,0.187,1.072,0.187c0.423,0,0.772-0.078,1.048-0.231c0.276-0.154,0.489-0.365,0.637-0.633
		c0.148-0.267,0.223-0.728,0.223-1.388v-3.556h-0.657V57.773L59.423,57.773z"/>
	<polygon fill="#FFFFFF" points="64.378,58.42 64.396,58.863 64.167,58.42 61.672,54.404 60.961,54.404 60.961,60.051 
		61.619,60.051 61.619,56.018 61.6,55.562 61.839,56.02 64.343,60.051 65.035,60.051 65.035,54.404 64.378,54.404 	"/>
	<rect x="66.007" y="54.404" fill="#FFFFFF" width="0.71" height="5.645"/>
	<path fill="#FFFFFF" d="M69.822,54.242c-0.683,0-1.24,0.258-1.672,0.775c-0.435,0.518-0.65,1.252-0.65,2.207
		c0,0.957,0.216,1.692,0.65,2.211c0.432,0.518,0.989,0.774,1.672,0.774c0.685,0,1.242-0.258,1.676-0.774
		c0.433-0.519,0.65-1.254,0.65-2.211c0-0.955-0.218-1.689-0.65-2.207C71.064,54.5,70.506,54.242,69.822,54.242z M70.992,58.984
		c-0.28,0.442-0.67,0.662-1.17,0.662c-0.496,0-0.885-0.22-1.164-0.662c-0.282-0.441-0.422-1.027-0.422-1.758
		c0-0.729,0.14-1.312,0.422-1.756c0.279-0.443,0.668-0.664,1.164-0.664c0.5,0,0.89,0.221,1.17,0.664
		c0.279,0.442,0.42,1.026,0.42,1.756C71.412,57.957,71.271,58.543,70.992,58.984z"/>
	<polygon fill="#FFFFFF" points="76.336,58.42 76.354,58.863 76.125,58.42 73.63,54.404 72.921,54.404 72.921,60.051 73.578,60.051 
		73.578,56.018 73.559,55.562 73.797,56.02 76.301,60.051 76.994,60.051 76.994,54.404 76.336,54.404 	"/>
	<path fill="#FFFFFF" d="M83.43,54.713c-0.341-0.205-0.878-0.309-1.614-0.309h-1.512v5.646h1.608c0.689,0,1.209-0.123,1.561-0.366
		c0.351-0.246,0.611-0.578,0.785-0.996c0.173-0.418,0.26-0.912,0.26-1.482c0-0.609-0.095-1.125-0.288-1.547
		C84.038,55.234,83.772,54.918,83.43,54.713z M83.579,58.49c-0.135,0.324-0.33,0.562-0.587,0.713
		c-0.256,0.154-0.636,0.23-1.136,0.23h-0.843v-4.466h0.823c0.542,0,0.94,0.082,1.194,0.25c0.253,0.168,0.441,0.431,0.564,0.781
		c0.124,0.354,0.186,0.776,0.186,1.269C83.78,57.758,83.714,58.164,83.579,58.49z"/>
	<polygon fill="#FFFFFF" points="86.001,57.365 88.078,57.365 88.078,56.803 86.001,56.803 86.001,55.021 88.379,55.021 
		88.379,54.404 85.292,54.404 85.292,60.051 88.574,60.051 88.574,59.434 86.001,59.434 	"/>
	<path fill="#FFFFFF" d="M91.627,56.977l-0.332-0.147c-0.33-0.149-0.566-0.271-0.705-0.358c-0.141-0.091-0.25-0.203-0.33-0.341
		c-0.078-0.137-0.117-0.28-0.117-0.438c0-0.229,0.084-0.436,0.25-0.612c0.168-0.183,0.426-0.271,0.773-0.271
		c0.172,0,0.33,0.02,0.473,0.061c0.144,0.039,0.25,0.104,0.32,0.193c0.072,0.09,0.109,0.182,0.109,0.272v0.037h0.709v-0.037
		c0-0.291-0.115-0.545-0.351-0.765c-0.231-0.219-0.635-0.327-1.202-0.327c-0.621,0-1.08,0.146-1.373,0.438
		c-0.291,0.293-0.438,0.652-0.438,1.078c0,0.242,0.047,0.461,0.142,0.656c0.094,0.197,0.235,0.375,0.426,0.537
		c0.192,0.16,0.479,0.322,0.867,0.488l0.286,0.119c0.365,0.153,0.642,0.311,0.822,0.465c0.181,0.158,0.271,0.356,0.271,0.604
		c0,0.306-0.106,0.552-0.315,0.736c-0.211,0.188-0.472,0.278-0.781,0.278c-0.354,0-0.642-0.062-0.854-0.186
		c-0.213-0.123-0.32-0.34-0.32-0.654V58.77h-0.709v0.035c0,0.273,0.07,0.525,0.213,0.758c0.145,0.229,0.354,0.396,0.625,0.496
		c0.275,0.101,0.615,0.15,1.023,0.15c0.43,0,0.774-0.068,1.033-0.205c0.258-0.137,0.459-0.338,0.604-0.602
		c0.146-0.267,0.219-0.539,0.219-0.82c0-0.305-0.09-0.59-0.269-0.854C92.518,57.467,92.162,57.215,91.627,56.977z"/>
	<path fill="#FFFFFF" d="M99.934,55.621v-0.037c0-0.213-0.074-0.438-0.225-0.67c-0.148-0.232-0.35-0.402-0.604-0.512
		c-0.258-0.105-0.558-0.16-0.9-0.16c-0.703,0-1.275,0.252-1.713,0.752c-0.439,0.5-0.658,1.244-0.658,2.232
		c0,0.994,0.221,1.739,0.662,2.237s1.01,0.746,1.707,0.746c0.344,0,0.645-0.053,0.902-0.16c0.254-0.108,0.455-0.276,0.604-0.506
		c0.15-0.229,0.225-0.453,0.225-0.676v-0.035h-0.656v0.035c0,0.194-0.079,0.377-0.239,0.534c-0.158,0.162-0.431,0.242-0.81,0.242
		c-0.555,0-0.971-0.225-1.244-0.678c-0.274-0.451-0.414-1.033-0.414-1.744c0-0.703,0.138-1.283,0.412-1.736
		c0.273-0.454,0.689-0.682,1.25-0.682c0.22,0,0.406,0.031,0.562,0.096c0.156,0.064,0.276,0.16,0.358,0.285
		c0.084,0.127,0.125,0.26,0.125,0.396v0.037h0.656V55.621z"/>
	<path fill="#FFFFFF" d="M102.482,54.404l-2.236,5.645h0.658l0.619-1.547h2.42l0.565,1.547h0.767l-2.078-5.645H102.482z
		 M101.734,57.938l1.031-2.627l0.967,2.627H101.734z"/>
	<rect x="105.834" y="54.404" fill="#FFFFFF" width="0.709" height="5.645"/>
	<path fill="#FFFFFF" d="M109.76,56.977l-0.334-0.147c-0.33-0.149-0.566-0.271-0.705-0.358c-0.139-0.09-0.25-0.203-0.328-0.341
		c-0.08-0.137-0.119-0.28-0.119-0.438c0-0.229,0.082-0.436,0.25-0.612c0.168-0.183,0.429-0.271,0.773-0.271
		c0.172,0,0.33,0.02,0.473,0.061c0.144,0.039,0.25,0.104,0.322,0.193c0.07,0.09,0.105,0.182,0.105,0.272v0.037h0.711v-0.037
		c0-0.291-0.115-0.545-0.35-0.765c-0.23-0.219-0.634-0.327-1.203-0.327c-0.623,0-1.08,0.146-1.371,0.438
		c-0.293,0.293-0.439,0.652-0.439,1.078c0,0.242,0.047,0.461,0.141,0.656c0.094,0.197,0.236,0.375,0.428,0.537
		c0.191,0.16,0.48,0.322,0.865,0.488l0.287,0.119c0.367,0.153,0.642,0.311,0.824,0.465c0.178,0.158,0.268,0.356,0.268,0.604
		c0,0.306-0.104,0.552-0.313,0.736c-0.211,0.188-0.474,0.278-0.778,0.278c-0.357,0-0.642-0.062-0.857-0.186
		c-0.213-0.123-0.318-0.34-0.318-0.654V58.77h-0.711v0.035c0,0.273,0.07,0.525,0.215,0.758c0.143,0.229,0.35,0.396,0.625,0.496
		c0.273,0.101,0.615,0.15,1.021,0.15c0.432,0,0.775-0.068,1.033-0.205s0.459-0.338,0.604-0.602c0.146-0.267,0.22-0.539,0.22-0.82
		c0-0.305-0.091-0.59-0.267-0.854C110.65,57.467,110.293,57.215,109.76,56.977z"/>
	<path fill="#FFFFFF" d="M114.064,56.977l-0.334-0.147c-0.33-0.149-0.566-0.271-0.705-0.358c-0.142-0.091-0.25-0.203-0.328-0.341
		c-0.08-0.137-0.119-0.28-0.119-0.438c0-0.229,0.084-0.436,0.252-0.612c0.166-0.183,0.426-0.271,0.771-0.271
		c0.174,0,0.33,0.02,0.473,0.061c0.143,0.039,0.25,0.104,0.322,0.193c0.071,0.088,0.104,0.182,0.104,0.272v0.037h0.711v-0.037
		c0-0.291-0.114-0.545-0.349-0.765c-0.232-0.219-0.635-0.327-1.206-0.327c-0.621,0-1.076,0.146-1.369,0.438
		s-0.438,0.652-0.438,1.078c0,0.242,0.047,0.461,0.141,0.656c0.094,0.197,0.236,0.375,0.428,0.537
		c0.191,0.16,0.48,0.322,0.865,0.488l0.289,0.119c0.365,0.153,0.639,0.311,0.82,0.465c0.182,0.158,0.27,0.356,0.27,0.604
		c0,0.306-0.104,0.552-0.314,0.736c-0.209,0.188-0.471,0.278-0.781,0.278c-0.354,0-0.641-0.062-0.854-0.186
		c-0.215-0.123-0.322-0.34-0.322-0.654V58.77h-0.709v0.035c0,0.273,0.072,0.525,0.215,0.758c0.144,0.229,0.351,0.396,0.625,0.496
		c0.273,0.101,0.615,0.15,1.021,0.15c0.432,0,0.775-0.068,1.033-0.205s0.459-0.338,0.605-0.602c0.146-0.267,0.219-0.539,0.219-0.82
		c0-0.305-0.09-0.59-0.267-0.854C114.955,57.467,114.598,57.215,114.064,56.977z"/>
	<polygon fill="#FFFFFF" points="119.402,59.434 116.83,59.434 116.83,57.365 118.906,57.365 118.906,56.803 116.83,56.803 
		116.83,55.021 119.207,55.021 119.207,54.404 116.119,54.404 116.119,60.051 119.402,60.051 	"/>
	<path fill="#FFFFFF" d="M120.912,60.061c0.273,0.101,0.615,0.15,1.023,0.15c0.43,0,0.772-0.068,1.03-0.205
		c0.259-0.137,0.461-0.338,0.604-0.602c0.146-0.266,0.22-0.539,0.22-0.82c0-0.305-0.088-0.59-0.267-0.854
		c-0.18-0.265-0.535-0.517-1.069-0.754l-0.334-0.148c-0.33-0.15-0.565-0.27-0.705-0.359c-0.14-0.089-0.25-0.203-0.328-0.34
		c-0.08-0.137-0.119-0.281-0.119-0.438c0-0.23,0.084-0.437,0.253-0.613c0.166-0.182,0.424-0.271,0.772-0.271
		c0.172,0,0.33,0.021,0.471,0.062c0.146,0.039,0.25,0.104,0.322,0.192c0.071,0.09,0.106,0.183,0.106,0.273v0.037h0.711v-0.037
		c0-0.291-0.115-0.545-0.35-0.764c-0.232-0.219-0.635-0.328-1.205-0.328c-0.621,0-1.078,0.146-1.371,0.439s-0.438,0.651-0.438,1.077
		c0,0.242,0.047,0.462,0.139,0.656c0.094,0.196,0.236,0.375,0.428,0.537c0.191,0.159,0.48,0.321,0.867,0.487l0.287,0.119
		c0.365,0.154,0.639,0.312,0.822,0.465c0.18,0.158,0.27,0.357,0.27,0.605c0,0.305-0.105,0.551-0.314,0.736
		c-0.211,0.188-0.473,0.279-0.782,0.279c-0.354,0-0.64-0.062-0.854-0.187s-0.319-0.34-0.319-0.653V58.77h-0.709v0.035
		c0,0.272,0.069,0.524,0.213,0.758C120.43,59.793,120.637,59.959,120.912,60.061z"/>
	<polygon fill="#FFFFFF" points="130.922,54.404 130.264,54.404 130.264,58.42 130.281,58.863 130.053,58.42 127.557,54.404 
		126.848,54.404 126.848,60.051 127.504,60.051 127.504,56.018 127.486,55.562 127.725,56.02 130.229,60.051 130.922,60.051 	"/>
	<path fill="#FFFFFF" d="M136.518,60.049l-2.08-5.645h-0.715l-2.238,5.645h0.66l0.619-1.547h2.42l0.566,1.547H136.518z
		 M132.975,57.938l1.031-2.627l0.967,2.627H132.975z"/>
	<polygon fill="#FFFFFF" points="136.666,54.969 138.529,54.969 138.529,60.051 139.238,60.051 139.238,54.969 141.074,54.969 
		141.074,54.404 136.666,54.404 	"/>
	<rect x="141.625" y="54.404" fill="#FFFFFF" width="0.709" height="5.645"/>
	<path fill="#FFFFFF" d="M143.766,55.018c-0.434,0.519-0.649,1.252-0.649,2.207c0,0.957,0.217,1.693,0.649,2.211
		c0.434,0.519,0.99,0.775,1.674,0.775c0.685,0,1.242-0.258,1.677-0.775c0.432-0.518,0.649-1.254,0.649-2.211
		c0-0.955-0.219-1.688-0.649-2.207c-0.435-0.518-0.992-0.774-1.677-0.774C144.756,54.243,144.199,54.5,143.766,55.018z
		 M146.609,55.471c0.281,0.443,0.42,1.027,0.42,1.756c0,0.73-0.139,1.316-0.42,1.758c-0.281,0.443-0.67,0.662-1.17,0.662
		c-0.496,0-0.883-0.219-1.166-0.662c-0.281-0.44-0.42-1.026-0.42-1.758c0-0.729,0.139-1.312,0.42-1.756
		c0.283-0.443,0.67-0.664,1.166-0.664C145.939,54.807,146.328,55.027,146.609,55.471z"/>
	<polygon fill="#FFFFFF" points="151.92,60.051 152.611,60.051 152.611,54.404 151.955,54.404 151.955,58.42 151.973,58.863 
		151.742,58.42 149.248,54.404 148.539,54.404 148.539,60.051 149.195,60.051 149.195,56.018 149.178,55.562 149.416,56.02 	"/>
	<path fill="#FFFFFF" d="M156.127,54.404h-0.715l-2.236,5.645h0.658l0.619-1.547h2.422l0.564,1.547h0.768L156.127,54.404z
		 M154.664,57.938l1.033-2.627l0.967,2.627H154.664z"/>
	<polygon fill="#FFFFFF" points="158.764,54.404 158.764,60.051 162.348,60.051 162.348,59.434 159.473,59.434 159.473,54.404 	"/>
	<polygon fill="#FFFFFF" points="166.189,59.434 163.615,59.434 163.615,57.365 165.691,57.365 165.691,56.803 163.615,56.803 
		163.615,55.021 165.994,55.021 165.994,54.404 162.906,54.404 162.906,60.051 166.189,60.051 	"/>
	<path fill="#FFFFFF" d="M169.24,56.977l-0.332-0.147c-0.332-0.149-0.566-0.271-0.707-0.358c-0.139-0.091-0.248-0.203-0.326-0.341
		c-0.08-0.137-0.119-0.28-0.119-0.438c0-0.229,0.082-0.436,0.25-0.612c0.168-0.183,0.426-0.271,0.773-0.271
		c0.172,0,0.33,0.02,0.473,0.061c0.143,0.039,0.25,0.104,0.32,0.193c0.072,0.09,0.107,0.182,0.107,0.272v0.037h0.711v-0.037
		c0-0.291-0.115-0.545-0.351-0.765c-0.231-0.219-0.636-0.327-1.203-0.327c-0.623,0-1.08,0.146-1.371,0.438
		c-0.293,0.293-0.438,0.652-0.438,1.078c0,0.242,0.047,0.461,0.141,0.656c0.094,0.197,0.236,0.375,0.428,0.537
		c0.189,0.16,0.479,0.322,0.865,0.488l0.287,0.119c0.365,0.153,0.641,0.311,0.822,0.465c0.182,0.158,0.27,0.356,0.27,0.604
		c0,0.306-0.105,0.552-0.314,0.736c-0.211,0.188-0.471,0.278-0.78,0.278c-0.354,0-0.642-0.062-0.854-0.186
		c-0.213-0.123-0.32-0.34-0.32-0.654V58.77h-0.709v0.035c0,0.273,0.07,0.525,0.213,0.758c0.145,0.229,0.352,0.396,0.627,0.496
		c0.271,0.101,0.613,0.15,1.021,0.15c0.43,0,0.772-0.068,1.032-0.205c0.259-0.137,0.459-0.338,0.604-0.602
		c0.146-0.267,0.218-0.539,0.218-0.82c0-0.305-0.089-0.59-0.267-0.854C170.131,57.467,169.775,57.215,169.24,56.977z"/>
	<path fill="#FFFFFF" d="M99.029,64.562c-0.342-0.205-0.879-0.31-1.613-0.31h-1.514V69.9h1.609c0.688,0,1.209-0.123,1.559-0.367
		c0.352-0.246,0.613-0.578,0.787-0.996c0.172-0.418,0.258-0.912,0.258-1.482c0-0.609-0.094-1.125-0.287-1.547
		C99.637,65.084,99.371,64.768,99.029,64.562z M99.178,68.34c-0.135,0.324-0.33,0.562-0.586,0.715
		c-0.256,0.153-0.637,0.229-1.139,0.229h-0.842v-4.466h0.824c0.543,0,0.938,0.082,1.192,0.25s0.44,0.431,0.563,0.781
		c0.125,0.355,0.188,0.777,0.188,1.269S99.312,68.016,99.178,68.34z"/>
	<polygon fill="#FFFFFF" points="101.6,67.215 103.678,67.215 103.678,66.652 101.6,66.652 101.6,64.871 103.979,64.871 
		103.979,64.254 100.891,64.254 100.891,69.9 104.174,69.9 104.174,69.283 101.6,69.283 	"/>
	<path fill="#FFFFFF" d="M109.562,66.826l-0.334-0.148c-0.328-0.15-0.564-0.27-0.705-0.359c-0.14-0.09-0.248-0.202-0.326-0.34
		c-0.08-0.137-0.121-0.28-0.121-0.438c0-0.23,0.086-0.436,0.254-0.615c0.166-0.18,0.424-0.27,0.77-0.27
		c0.174,0,0.332,0.02,0.476,0.061c0.143,0.039,0.25,0.105,0.319,0.193c0.072,0.09,0.107,0.182,0.107,0.273v0.037h0.711v-0.037
		c0-0.291-0.117-0.545-0.35-0.765c-0.233-0.219-0.635-0.328-1.205-0.328c-0.621,0-1.076,0.146-1.369,0.438
		c-0.293,0.294-0.439,0.652-0.439,1.078c0,0.242,0.047,0.461,0.142,0.656c0.094,0.197,0.233,0.375,0.428,0.537
		c0.19,0.16,0.479,0.324,0.865,0.488l0.286,0.119c0.365,0.154,0.642,0.311,0.822,0.465c0.18,0.158,0.271,0.359,0.271,0.605
		c0,0.305-0.104,0.551-0.313,0.735c-0.211,0.188-0.472,0.281-0.781,0.281c-0.355,0-0.642-0.062-0.854-0.187
		c-0.215-0.123-0.321-0.342-0.321-0.656v-0.034h-0.711v0.034c0,0.273,0.073,0.525,0.217,0.759c0.141,0.229,0.35,0.396,0.623,0.496
		c0.274,0.1,0.614,0.149,1.022,0.149c0.431,0,0.774-0.067,1.033-0.205c0.258-0.137,0.459-0.338,0.604-0.602s0.217-0.539,0.217-0.82
		c0-0.305-0.09-0.59-0.266-0.854C110.455,67.316,110.098,67.064,109.562,66.826z"/>
	<polygon fill="#FFFFFF" points="112.33,67.215 114.406,67.215 114.406,66.652 112.33,66.652 112.33,64.871 114.707,64.871 
		114.707,64.254 111.621,64.254 111.621,69.9 114.902,69.9 114.902,69.281 112.33,69.281 	"/>
	<polygon fill="#FFFFFF" points="113.234,62.902 112.143,63.637 112.986,63.637 114.389,62.902 	"/>
	<path fill="#FFFFFF" d="M118.789,64.252c-0.256-0.105-0.555-0.16-0.898-0.16c-0.703,0-1.272,0.25-1.713,0.752
		c-0.439,0.5-0.658,1.244-0.658,2.232c0,0.994,0.222,1.74,0.662,2.238c0.441,0.498,1.01,0.746,1.705,0.746
		c0.346,0,0.646-0.054,0.902-0.16c0.256-0.109,0.457-0.277,0.607-0.506c0.147-0.229,0.223-0.453,0.223-0.677v-0.034h-0.656v0.034
		c0,0.197-0.08,0.378-0.24,0.535c-0.16,0.162-0.428,0.242-0.809,0.242c-0.557,0-0.971-0.226-1.246-0.679
		c-0.275-0.45-0.412-1.032-0.412-1.743c0-0.703,0.137-1.283,0.41-1.736c0.273-0.455,0.691-0.683,1.252-0.683
		c0.219,0,0.404,0.031,0.561,0.097c0.158,0.065,0.275,0.16,0.359,0.285c0.082,0.127,0.125,0.258,0.125,0.396v0.037h0.656v-0.037
		c0-0.213-0.074-0.438-0.223-0.67C119.246,64.531,119.045,64.361,118.789,64.252z"/>
	<path fill="#FFFFFF" d="M123.541,67.621c0,0.652-0.047,1.08-0.143,1.285c-0.094,0.203-0.24,0.355-0.435,0.449
		s-0.418,0.143-0.67,0.143c-0.26,0-0.496-0.049-0.707-0.143s-0.366-0.232-0.469-0.414c-0.103-0.178-0.15-0.533-0.15-1.062v-3.627
		h-0.711v3.724c0,0.621,0.08,1.062,0.238,1.323c0.157,0.261,0.399,0.451,0.726,0.574c0.324,0.123,0.682,0.187,1.071,0.187
		c0.422,0,0.771-0.078,1.047-0.232c0.277-0.154,0.488-0.365,0.638-0.633c0.147-0.266,0.223-0.729,0.223-1.387v-3.556h-0.658V67.621z
		"/>
	<path fill="#FFFFFF" d="M127.717,67.846c-0.088-0.135-0.16-0.231-0.219-0.291c-0.062-0.061-0.15-0.125-0.271-0.193
		c0.314-0.129,0.545-0.272,0.695-0.438s0.264-0.348,0.346-0.551c0.082-0.201,0.123-0.414,0.123-0.635
		c0-0.273-0.061-0.527-0.184-0.764c-0.123-0.232-0.289-0.412-0.498-0.537c-0.209-0.123-0.521-0.185-0.936-0.185h-1.693v5.646h0.709
		v-2.424h0.729c0.291,0.27,0.527,0.582,0.709,0.94l0.758,1.481h0.818l-0.863-1.672C127.877,68.107,127.803,67.98,127.717,67.846z
		 M127.156,66.77c-0.152,0.097-0.375,0.144-0.668,0.144h-0.699v-2.097h0.75c0.328,0,0.559,0.05,0.695,0.144
		c0.137,0.097,0.242,0.213,0.312,0.353c0.072,0.141,0.104,0.299,0.104,0.477c0,0.205-0.043,0.396-0.135,0.574
		C127.428,66.541,127.307,66.678,127.156,66.77z"/>
	<rect x="129.387" y="64.254" fill="#FFFFFF" width="0.709" height="5.646"/>
	<polygon fill="#FFFFFF" points="130.654,64.818 132.518,64.818 132.518,69.9 133.227,69.9 133.227,64.818 135.064,64.818 
		135.064,64.254 130.654,64.254 	"/>
	<polygon fill="#FFFFFF" points="136.324,67.215 138.4,67.215 138.4,66.652 136.324,66.652 136.324,64.871 138.701,64.871 
		138.701,64.254 135.615,64.254 135.615,69.9 138.898,69.9 138.898,69.281 136.324,69.281 	"/>
	<polygon fill="#FFFFFF" points="138.385,62.902 137.23,62.902 136.139,63.637 136.98,63.637 	"/>
	<path fill="#FFFFFF" d="M144.287,66.826l-0.334-0.148c-0.33-0.15-0.566-0.27-0.705-0.359c-0.141-0.09-0.25-0.202-0.33-0.34
		c-0.078-0.137-0.117-0.28-0.117-0.438c0-0.23,0.082-0.436,0.25-0.615c0.168-0.179,0.426-0.27,0.773-0.27
		c0.172,0,0.33,0.02,0.473,0.061c0.143,0.039,0.25,0.105,0.32,0.193c0.072,0.09,0.109,0.182,0.109,0.273v0.037h0.709v-0.037
		c0-0.291-0.115-0.545-0.351-0.765c-0.231-0.219-0.633-0.328-1.203-0.328c-0.623,0-1.08,0.146-1.371,0.438
		c-0.293,0.294-0.438,0.652-0.438,1.078c0,0.242,0.047,0.461,0.141,0.656c0.094,0.197,0.236,0.375,0.428,0.537
		c0.191,0.16,0.48,0.324,0.865,0.488l0.287,0.119c0.367,0.154,0.641,0.311,0.824,0.465c0.18,0.158,0.268,0.359,0.268,0.605
		c0,0.305-0.104,0.551-0.314,0.735c-0.209,0.188-0.471,0.281-0.78,0.281c-0.354,0-0.64-0.062-0.854-0.187
		c-0.213-0.123-0.318-0.342-0.318-0.656v-0.034h-0.711v0.034c0,0.273,0.07,0.525,0.215,0.759c0.143,0.229,0.35,0.396,0.623,0.496
		c0.275,0.1,0.617,0.149,1.023,0.149c0.432,0,0.774-0.067,1.032-0.205c0.259-0.137,0.459-0.338,0.604-0.602s0.22-0.539,0.22-0.82
		c0-0.305-0.09-0.59-0.267-0.854C145.176,67.316,144.82,67.064,144.287,66.826z"/>
	<path fill="#FFFFFF" d="M148.479,64.092c-0.682,0-1.237,0.26-1.672,0.775c-0.436,0.518-0.649,1.252-0.649,2.207
		s0.215,1.693,0.649,2.211s0.99,0.775,1.672,0.775c0.685,0,1.244-0.259,1.679-0.775c0.432-0.518,0.649-1.256,0.649-2.211
		s-0.219-1.689-0.649-2.207C149.723,64.352,149.162,64.092,148.479,64.092z M149.648,68.836c-0.279,0.439-0.67,0.662-1.17,0.662
		c-0.494,0-0.883-0.223-1.164-0.662c-0.281-0.443-0.422-1.027-0.422-1.76c0-0.727,0.141-1.312,0.422-1.756
		c0.281-0.444,0.67-0.664,1.164-0.664c0.5,0,0.891,0.221,1.17,0.664c0.281,0.443,0.42,1.029,0.42,1.756
		C150.068,67.809,149.93,68.393,149.648,68.836z"/>
	<path fill="#FFFFFF" d="M154.662,64.252c-0.256-0.105-0.555-0.16-0.898-0.16c-0.703,0-1.274,0.25-1.713,0.752
		c-0.439,0.5-0.658,1.244-0.658,2.232c0,0.994,0.221,1.74,0.662,2.238s1.01,0.746,1.705,0.746c0.346,0,0.646-0.054,0.902-0.16
		c0.256-0.109,0.457-0.277,0.607-0.506c0.147-0.229,0.223-0.453,0.223-0.677v-0.034h-0.656v0.034c0,0.197-0.08,0.378-0.24,0.535
		c-0.16,0.162-0.43,0.242-0.809,0.242c-0.557,0-0.971-0.226-1.246-0.679c-0.275-0.45-0.412-1.032-0.412-1.743
		c0-0.703,0.137-1.283,0.41-1.736c0.273-0.455,0.691-0.683,1.252-0.683c0.219,0,0.404,0.031,0.561,0.097
		c0.157,0.065,0.275,0.16,0.359,0.285c0.082,0.127,0.125,0.258,0.125,0.396v0.037h0.656v-0.037c0-0.213-0.074-0.438-0.223-0.67
		C155.119,64.531,154.918,64.361,154.662,64.252z"/>
	<rect x="156.211" y="64.254" fill="#FFFFFF" width="0.709" height="5.646"/>
	<path fill="#FFFFFF" d="M159.717,64.254l-2.236,5.645h0.66l0.619-1.547h2.42l0.566,1.547h0.766l-2.08-5.645H159.717z
		 M158.969,67.789L160,65.16l0.969,2.629H158.969z"/>
	<polygon fill="#FFFFFF" points="163.777,64.254 163.068,64.254 163.068,69.9 166.652,69.9 166.652,69.283 163.777,69.283 	"/>
	<polygon fill="#FFFFFF" points="167.92,67.215 169.998,67.215 169.998,66.652 167.92,66.652 167.92,64.871 170.299,64.871 
		170.299,64.254 167.211,64.254 167.211,69.9 170.494,69.9 170.494,69.283 167.92,69.283 	"/>
</g>
</svg>
