<?xml version="1.0" encoding="utf-8"?>
<!-- Generator: Adobe Illustrator 16.0.0, SVG Export Plug-In . SVG Version: 6.00 Build 0)  -->
<!DOCTYPE svg PUBLIC "-//W3C//DTD SVG 1.1//EN" "http://www.w3.org/Graphics/SVG/1.1/DTD/svg11.dtd">
<svg version="1.1" id="Layer_1" xmlns="http://www.w3.org/2000/svg" xmlns:xlink="http://www.w3.org/1999/xlink" x="0px" y="0px"
	 width="50px" height="50px" viewBox="0 0 50 50" enable-background="new 0 0 50 50" xml:space="preserve">
<g>
	<polygon fill="#593C81" points="37.801,39.945 37.801,39.457 14.992,39.471 14.976,9.403 32.562,9.388 37.295,13.424 
		37.313,39.945 37.801,39.945 37.801,39.457 37.801,39.945 38.288,39.945 38.269,12.975 32.92,8.415 14.001,8.43 14.019,40.445 
		38.288,40.432 38.288,39.945 	"/>
	<polygon fill="#593C81" points="37.336,13.471 33.215,13.475 33.215,9.466 32.241,9.466 32.241,14.45 37.336,14.445 	"/>
	<polyline fill="#00A3D7" points="21.872,29.98 30.692,21.168 30.004,20.479 21.183,29.293 	"/>
	<polygon fill="#00A3D7" points="24.91,21.311 29.861,21.311 29.861,25.783 30.835,25.783 30.835,20.337 24.91,20.337 	"/>
	<path fill="#CC3333" d="M0.75,24.835h0.487c0-6.589,2.67-12.552,6.989-16.872c4.32-4.319,10.282-6.989,16.872-6.989
		c6.59,0,12.551,2.67,16.871,6.989c4.318,4.32,6.988,10.283,6.988,16.872c0,6.589-2.67,12.552-6.988,16.87
		c-4.32,4.32-10.281,6.99-16.871,6.99c-6.589,0-12.552-2.67-16.872-6.99c-4.319-4.318-6.989-10.281-6.989-16.87H0.75H0.263
		c0,13.716,11.121,24.833,24.835,24.833c13.714,0,24.833-11.117,24.833-24.833C49.931,11.12,38.812,0,25.098,0
		C11.383,0,0.263,11.12,0.263,24.835H0.75z"/>
</g>
</svg>
