<?xml version="1.0" encoding="utf-8"?>
<!-- Generator: Adobe Illustrator 16.0.0, SVG Export Plug-In . SVG Version: 6.00 Build 0)  -->
<!DOCTYPE svg PUBLIC "-//W3C//DTD SVG 1.1//EN" "http://www.w3.org/Graphics/SVG/1.1/DTD/svg11.dtd">
<svg version="1.1" id="Layer_1" xmlns="http://www.w3.org/2000/svg" xmlns:xlink="http://www.w3.org/1999/xlink" x="0px" y="0px"
	 width="50px" height="50px" viewBox="0 0 50 50" enable-background="new 0 0 50 50" xml:space="preserve">
<g id="LOGO_DECISION">
	<rect x="12.484" y="7.951" fill="none" stroke="#593C81" stroke-miterlimit="10" width="24.344" height="31.652"/>
	<g>
		<path fill="#FFFFFF" d="M41.7,35.951c0,4.166-3.374,7.541-7.549,7.541c-4.171,0-7.551-3.375-7.551-7.541
			c0-4.174,3.38-7.555,7.551-7.555C38.326,28.396,41.7,31.777,41.7,35.951"/>
		<path fill="none" stroke="#593C81" stroke-miterlimit="10" d="M41.7,35.951c0,4.166-3.374,7.541-7.549,7.541
			c-4.171,0-7.551-3.375-7.551-7.541c0-4.174,3.38-7.555,7.551-7.555C38.326,28.396,41.7,31.777,41.7,35.951z"/>
		<path fill="#00A3D7" d="M34.402,32.59c0.172,0.016,0.343,0.039,0.509,0.059c1.289,0.17,2.431,0.684,3.441,1.498
			c0.384,0.314,0.729,0.664,1.043,1.055c0.157,0.189,0.154,0.357-0.028,0.543c-0.114,0.121-0.229,0.242-0.342,0.359
			c-0.157,0.168-0.3,0.16-0.442-0.018c-0.742-0.938-1.663-1.617-2.797-1.99c-2.225-0.734-4.65-0.033-6.17,1.775
			c-0.063,0.08-0.135,0.166-0.194,0.246c-0.119,0.141-0.269,0.146-0.391,0.021c-0.138-0.139-0.277-0.287-0.421-0.436
			c-0.128-0.143-0.128-0.322-0.013-0.473c1.141-1.389,2.581-2.268,4.35-2.555c0.229-0.041,0.448-0.057,0.671-0.086H34.402
			L34.402,32.59z"/>
		<path fill="#00A3D7" d="M37.855,37.199c-0.044,0.094-0.086,0.193-0.143,0.266c-0.114,0.141-0.243,0.258-0.371,0.391
			c-0.172,0.18-0.3,0.18-0.442-0.043c-0.426-0.613-0.983-1.07-1.684-1.342c-1.483-0.57-3.163-0.027-4.08,1.328
			c-0.024,0.035-0.043,0.066-0.071,0.1c-0.09,0.107-0.214,0.113-0.313,0.021c-0.163-0.154-0.327-0.316-0.471-0.488
			c-0.114-0.133-0.114-0.311-0.015-0.447c0.742-1.012,1.727-1.686,2.976-1.883c1.86-0.291,3.344,0.379,4.486,1.848
			C37.784,37.014,37.812,37.102,37.855,37.199"/>
		<path fill="#00A3D7" d="M36.357,38.777c-0.058,0.084-0.086,0.176-0.147,0.256c-0.124,0.143-0.267,0.283-0.396,0.42
			c-0.141,0.143-0.276,0.129-0.397-0.021c-0.257-0.35-0.585-0.598-0.999-0.684c-0.699-0.166-1.27,0.057-1.734,0.576
			c-0.034,0.049-0.065,0.102-0.105,0.135c-0.101,0.117-0.229,0.117-0.333,0.018c-0.152-0.16-0.305-0.301-0.452-0.467
			c-0.128-0.148-0.128-0.33,0-0.484c0.642-0.742,1.441-1.113,2.411-1.041c0.842,0.043,1.512,0.428,2.046,1.064
			C36.295,38.605,36.314,38.689,36.357,38.777"/>
	</g>
	<line fill="none" stroke="#339933" stroke-miterlimit="10" x1="18.034" y1="16.565" x2="22.597" y2="11.925"/>
	<line fill="none" stroke="#339933" stroke-miterlimit="10" x1="18.512" y1="16.726" x2="15.192" y2="13.291"/>
	<g id="LOGO_CANDIDATURE_4_">
		<circle fill="none" stroke="#CC3333" stroke-miterlimit="10" cx="25.096" cy="24.834" r="24.347"/>
	</g>
</g>
</svg>
