<?xml version="1.0" encoding="utf-8"?>
<!-- Generator: Adobe Illustrator 16.0.0, SVG Export Plug-In . SVG Version: 6.00 Build 0)  -->
<!DOCTYPE svg PUBLIC "-//W3C//DTD SVG 1.1//EN" "http://www.w3.org/Graphics/SVG/1.1/DTD/svg11.dtd">
<svg version="1.1" id="Layer_2" xmlns="http://www.w3.org/2000/svg" xmlns:xlink="http://www.w3.org/1999/xlink" x="0px" y="0px"
	 width="50px" height="50px" viewBox="0 0 50 50" enable-background="new 0 0 50 50" xml:space="preserve">
<g id="LOGO_DEV">
	<g>
		<polygon fill="none" stroke="#00A3D7" stroke-miterlimit="10" points="40.199,17.038 32.76,24.013 23.822,14.477 31.268,7.506 		
			"/>
		<line fill="none" stroke="#00A3D7" stroke-miterlimit="10" x1="28.402" y1="19.359" x2="20.497" y2="19.778"/>
		<line fill="none" stroke="#00A3D7" stroke-miterlimit="10" x1="20.514" y1="21.692" x2="20.478" y2="17.865"/>
		<g>
			<path fill="none" stroke="#00A3D7" stroke-miterlimit="10" d="M27.934,5.815c-1.691,1.587-2.127,4-1.297,6.025l4.631-4.333
				l4.9,5.234c1.348-2.048,1.174-4.814-0.57-6.678C33.551,3.876,30.119,3.766,27.934,5.815z"/>
			<line fill="none" stroke="#FFAE00" stroke-miterlimit="10" x1="20.76" y1="32.674" x2="20.76" y2="37.207"/>
			<path fill="none" stroke="#FFAE00" stroke-miterlimit="10" d="M20.363,34.254c-0.383-3.277-1.134-3.992-4.542-3.59l-0.049,0.066
				c0.395,3.412,1.259,3.975,4.538,3.588L20.363,34.254z"/>
			<path fill="none" stroke="#FFAE00" stroke-miterlimit="10" d="M20.859,34.244c0.507-4.328,1.495-5.268,5.994-4.736l0.068,0.086
				c-0.531,4.502-1.668,5.242-5.989,4.736L20.859,34.244z"/>
		</g>
		<g>
			<polygon fill="none" stroke="#593C81" stroke-miterlimit="10" points="14.915,37.207 27.105,37.207 24.551,46.285 17.18,46.285 
							"/>
			<line fill="none" stroke="#00A3D7" stroke-miterlimit="10" x1="20.39" y1="24.186" x2="20.39" y2="26.717"/>
		</g>
	</g>
	<circle fill="none" stroke="#CC3333" stroke-miterlimit="10" cx="25" cy="25.001" r="24.312"/>
</g>
</svg>
