<?xml version="1.0" encoding="utf-8"?>
<!-- Generator: Adobe Illustrator 16.0.0, SVG Export Plug-In . SVG Version: 6.00 Build 0)  -->
<!DOCTYPE svg PUBLIC "-//W3C//DTD SVG 1.1//EN" "http://www.w3.org/Graphics/SVG/1.1/DTD/svg11.dtd">
<svg version="1.1" id="Layer_2" xmlns="http://www.w3.org/2000/svg" xmlns:xlink="http://www.w3.org/1999/xlink" x="0px" y="0px"
	 width="50px" height="50px" viewBox="0 0 50 50" enable-background="new 0 0 50 50" xml:space="preserve">
<g id="PICTO_MANAGER">
	<g>
		<g>
			<path fill="#FFFFFF" d="M28.775,26.498c0,1.67-1.361,3.031-3.033,3.031c-1.686,0-3.032-1.361-3.032-3.031
				c0-1.681,1.347-3.034,3.032-3.034C27.414,23.464,28.775,24.817,28.775,26.498"/>
			<path fill="none" stroke="#00A3D7" stroke-miterlimit="10" d="M28.775,26.498c0,1.67-1.361,3.031-3.033,3.031
				c-1.686,0-3.032-1.361-3.032-3.031c0-1.681,1.347-3.034,3.032-3.034C27.414,23.464,28.775,24.817,28.775,26.498z"/>
			<path fill="#FFFFFF" d="M29.596,37.232v-3.617c0-2.119-1.742-3.854-3.854-3.854c-2.126,0-3.867,1.734-3.867,3.854v3.617H29.596z"
				/>
			<path fill="none" stroke="#00A3D7" stroke-miterlimit="10" d="M29.596,37.232v-3.617c0-2.119-1.742-3.854-3.854-3.854
				c-2.126,0-3.867,1.734-3.867,3.854v3.617H29.596z"/>
			<line fill="none" stroke="#593C81" stroke-miterlimit="10" x1="21.821" y1="23.464" x2="13.707" y2="15.35"/>
			<line fill="none" stroke="#593C81" stroke-miterlimit="10" x1="20.317" y1="28.184" x2="10.698" y2="28.184"/>
			<path fill="#FFFFFF" d="M3.146,28.365c0-2.6,2.105-4.711,4.71-4.711c2.606,0,4.726,2.111,4.726,4.711
				c0,2.605-2.12,4.719-4.726,4.719C5.252,33.084,3.146,30.971,3.146,28.365"/>
			<line fill="none" stroke="#593C81" stroke-miterlimit="10" x1="29.555" y1="23.464" x2="37.67" y2="15.35"/>
			<line fill="none" stroke="#593C81" stroke-miterlimit="10" x1="31.059" y1="28.184" x2="40.678" y2="28.184"/>
		</g>
		<g>
			<defs>
				<path id="SVGID_1_" d="M3.146,28.365c0,2.605,2.105,4.719,4.71,4.719c2.606,0,4.726-2.113,4.726-4.719
					c0-2.6-2.12-4.711-4.726-4.711C5.252,23.654,3.146,25.766,3.146,28.365"/>
			</defs>
			<clipPath id="SVGID_2_">
				<use xlink:href="#SVGID_1_"  overflow="visible"/>
			</clipPath>
			<path clip-path="url(#SVGID_2_)" fill="#FFFFFF" d="M9.686,26.463c0,1.037-0.843,1.871-1.873,1.871
				c-1.03,0-1.858-0.834-1.858-1.871c0-1.032,0.828-1.867,1.858-1.867C8.843,24.596,9.686,25.431,9.686,26.463"/>
			<path clip-path="url(#SVGID_2_)" fill="none" stroke="#FFAE00" stroke-miterlimit="10" d="M9.686,26.463
				c0,1.037-0.843,1.871-1.873,1.871c-1.03,0-1.858-0.834-1.858-1.871c0-1.032,0.828-1.867,1.858-1.867
				C8.843,24.596,9.686,25.431,9.686,26.463z"/>
			<path clip-path="url(#SVGID_2_)" fill="#FFFFFF" d="M10.195,33.084v-2.229c0-1.307-1.069-2.385-2.382-2.385
				c-1.299,0-2.369,1.078-2.369,2.385v2.229H10.195z"/>
			<path clip-path="url(#SVGID_2_)" fill="none" stroke="#FFAE00" stroke-miterlimit="10" d="M10.195,33.084v-2.229
				c0-1.307-1.069-2.385-2.382-2.385c-1.299,0-2.369,1.078-2.369,2.385v2.229H10.195z"/>
		</g>
		<g>
			<path fill="none" stroke="#593C81" stroke-miterlimit="10" d="M3.146,28.365c0-2.6,2.105-4.711,4.71-4.711
				c2.606,0,4.726,2.111,4.726,4.711c0,2.605-2.12,4.719-4.726,4.719C5.252,33.084,3.146,30.971,3.146,28.365z"/>
			<path fill="#FFFFFF" d="M37.473,28.365c0-2.6,2.119-4.711,4.725-4.711s4.711,2.111,4.711,4.711c0,2.605-2.105,4.719-4.711,4.719
				S37.473,30.971,37.473,28.365"/>
		</g>
		<g>
			<defs>
				<path id="SVGID_3_" d="M37.473,28.365c0,2.605,2.119,4.719,4.725,4.719s4.711-2.113,4.711-4.719c0-2.6-2.105-4.711-4.711-4.711
					S37.473,25.766,37.473,28.365"/>
			</defs>
			<clipPath id="SVGID_4_">
				<use xlink:href="#SVGID_3_"  overflow="visible"/>
			</clipPath>
			<path clip-path="url(#SVGID_4_)" fill="#FFFFFF" d="M44.012,26.463c0,1.037-0.828,1.871-1.859,1.871
				c-1.043,0-1.873-0.834-1.873-1.871c0-1.032,0.83-1.867,1.873-1.867C43.184,24.596,44.012,25.431,44.012,26.463"/>
			<path clip-path="url(#SVGID_4_)" fill="none" stroke="#FFAE00" stroke-miterlimit="10" d="M44.012,26.463
				c0,1.037-0.828,1.871-1.859,1.871c-1.043,0-1.873-0.834-1.873-1.871c0-1.032,0.83-1.867,1.873-1.867
				C43.184,24.596,44.012,25.431,44.012,26.463z"/>
			<path clip-path="url(#SVGID_4_)" fill="#FFFFFF" d="M44.521,33.084v-2.229c0-1.307-1.068-2.385-2.369-2.385
				c-1.312,0-2.383,1.078-2.383,2.385v2.229H44.521z"/>
			<path clip-path="url(#SVGID_4_)" fill="none" stroke="#FFAE00" stroke-miterlimit="10" d="M44.521,33.084v-2.229
				c0-1.307-1.068-2.385-2.369-2.385c-1.312,0-2.383,1.078-2.383,2.385v2.229H44.521z"/>
		</g>
		<g>
			<path fill="none" stroke="#593C81" stroke-miterlimit="10" d="M37.473,28.365c0-2.6,2.119-4.711,4.725-4.711
				s4.711,2.111,4.711,4.711c0,2.605-2.105,4.719-4.711,4.719S37.473,30.971,37.473,28.365z"/>
			<path fill="#FFFFFF" d="M9.938,15.35c0-2.605,2.105-4.71,4.71-4.71c2.605,0,4.726,2.105,4.726,4.71
				c0,2.606-2.121,4.718-4.726,4.718C12.044,20.068,9.938,17.956,9.938,15.35"/>
		</g>
		<g>
			<defs>
				<path id="SVGID_5_" d="M9.938,15.35c0,2.606,2.105,4.718,4.71,4.718c2.605,0,4.726-2.112,4.726-4.718
					c0-2.605-2.121-4.71-4.726-4.71C12.044,10.64,9.938,12.745,9.938,15.35"/>
			</defs>
			<clipPath id="SVGID_6_">
				<use xlink:href="#SVGID_5_"  overflow="visible"/>
			</clipPath>
			<path clip-path="url(#SVGID_6_)" fill="#FFFFFF" d="M16.478,13.447c0,1.037-0.843,1.874-1.873,1.874
				c-1.03,0-1.873-0.837-1.873-1.874c0-1.029,0.843-1.865,1.873-1.865C15.635,11.582,16.478,12.417,16.478,13.447"/>
			<path clip-path="url(#SVGID_6_)" fill="none" stroke="#FFAE00" stroke-miterlimit="10" d="M16.478,13.447
				c0,1.037-0.843,1.874-1.873,1.874c-1.03,0-1.873-0.837-1.873-1.874c0-1.029,0.843-1.865,1.873-1.865
				C15.635,11.582,16.478,12.417,16.478,13.447z"/>
			<path clip-path="url(#SVGID_6_)" fill="#FFFFFF" d="M16.987,20.068V17.84c0-1.313-1.069-2.383-2.382-2.383
				c-1.299,0-2.369,1.069-2.369,2.383v2.228H16.987z"/>
			<path clip-path="url(#SVGID_6_)" fill="none" stroke="#FFAE00" stroke-miterlimit="10" d="M16.987,20.068V17.84
				c0-1.313-1.069-2.383-2.382-2.383c-1.299,0-2.369,1.069-2.369,2.383v2.228H16.987z"/>
		</g>
		<g>
			<path fill="none" stroke="#6C5294" stroke-miterlimit="10" d="M9.938,15.35c0-2.605,2.105-4.71,4.71-4.71
				c2.605,0,4.726,2.105,4.726,4.71c0,2.606-2.121,4.718-4.726,4.718C12.044,20.068,9.938,17.956,9.938,15.35z"/>
			<path fill="#FFFFFF" d="M32.943,15.35c0-2.605,2.121-4.71,4.727-4.71s4.711,2.105,4.711,4.71c0,2.606-2.105,4.718-4.711,4.718
				S32.943,17.956,32.943,15.35"/>
		</g>
		<g>
			<defs>
				<path id="SVGID_7_" d="M32.943,15.35c0,2.606,2.121,4.718,4.727,4.718s4.711-2.112,4.711-4.718c0-2.605-2.105-4.71-4.711-4.71
					S32.943,12.745,32.943,15.35"/>
			</defs>
			<clipPath id="SVGID_8_">
				<use xlink:href="#SVGID_7_"  overflow="visible"/>
			</clipPath>
			<path clip-path="url(#SVGID_8_)" fill="#FFFFFF" d="M39.484,13.447c0,1.037-0.828,1.874-1.859,1.874
				c-1.029,0-1.873-0.837-1.873-1.874c0-1.029,0.844-1.865,1.873-1.865C38.656,11.582,39.484,12.417,39.484,13.447"/>
			<path clip-path="url(#SVGID_8_)" fill="none" stroke="#FFAE00" stroke-miterlimit="10" d="M39.484,13.447
				c0,1.037-0.828,1.874-1.859,1.874c-1.029,0-1.873-0.837-1.873-1.874c0-1.029,0.844-1.865,1.873-1.865
				C38.656,11.582,39.484,12.417,39.484,13.447z"/>
			<path clip-path="url(#SVGID_8_)" fill="#FFFFFF" d="M39.994,20.068V17.84c0-1.313-1.07-2.383-2.369-2.383
				c-1.314,0-2.383,1.069-2.383,2.383v2.228H39.994z"/>
			<path clip-path="url(#SVGID_8_)" fill="none" stroke="#FFAE00" stroke-miterlimit="10" d="M39.994,20.068V17.84
				c0-1.313-1.07-2.383-2.369-2.383c-1.314,0-2.383,1.069-2.383,2.383v2.228H39.994z"/>
		</g>
		<g>
			<path fill="none" stroke="#593C81" stroke-miterlimit="10" d="M32.943,15.35c0-2.605,2.121-4.71,4.727-4.71
				s4.711,2.105,4.711,4.71c0,2.606-2.105,4.718-4.711,4.718S32.943,17.956,32.943,15.35z"/>
		</g>
	</g>
	<circle fill="none" stroke="#CC3333" stroke-miterlimit="10" cx="25" cy="25.001" r="24.312"/>
</g>
</svg>
