<?xml version="1.0" encoding="utf-8"?>
<!-- Generator: Adobe Illustrator 16.0.0, SVG Export Plug-In . SVG Version: 6.00 Build 0)  -->
<!DOCTYPE svg PUBLIC "-//W3C//DTD SVG 1.1//EN" "http://www.w3.org/Graphics/SVG/1.1/DTD/svg11.dtd">
<svg version="1.1" id="Layer_1" xmlns="http://www.w3.org/2000/svg" xmlns:xlink="http://www.w3.org/1999/xlink" x="0px" y="0px"
	 width="50px" height="50px" viewBox="0 0 50 50" enable-background="new 0 0 50 50" xml:space="preserve">
<g id="LOGO_ENTRETIENTS">
	<g>
		<path fill="none" stroke="#DA2E35" stroke-miterlimit="10" d="M29.173,30.908c0,2.018-1.613,3.65-3.629,3.65
			s-3.637-1.633-3.637-3.65c0-2.002,1.621-3.633,3.637-3.633S29.173,28.906,29.173,30.908z"/>
		<path fill="none" stroke="#DA2E35" stroke-miterlimit="10" d="M30.162,43.818v-4.355c0-2.547-2.069-4.635-4.619-4.635
			c-2.549,0-4.636,2.088-4.636,4.635v4.355H30.162z"/>
		<line fill="none" stroke="#593C81" stroke-miterlimit="10" x1="20.842" y1="27.275" x2="11.103" y2="17.538"/>
		<line fill="none" stroke="#593C81" stroke-miterlimit="10" x1="30.124" y1="27.275" x2="39.862" y2="17.538"/>
	</g>
	<g>
		<path fill="#FFFFFF" d="M6.568,17.538c0-3.138,2.541-5.669,5.661-5.669c3.135,0,5.668,2.532,5.668,5.669
			c0,3.12-2.533,5.665-5.668,5.665C9.109,23.203,6.568,20.657,6.568,17.538"/>
	</g>
	<g>
		<defs>
			<path id="SVGID_1_" d="M6.568,17.538c0,3.12,2.541,5.666,5.661,5.666c3.135,0,5.668-2.546,5.668-5.666
				c0-3.139-2.533-5.669-5.668-5.669C9.109,11.868,6.568,14.398,6.568,17.538"/>
		</defs>
		<clipPath id="SVGID_2_">
			<use xlink:href="#SVGID_1_"  overflow="visible"/>
		</clipPath>
		<path clip-path="url(#SVGID_2_)" fill="#FFFFFF" d="M14.418,15.254c0,1.237-0.995,2.245-2.235,2.245
			c-1.248,0-2.243-1.008-2.243-2.245s0.995-2.246,2.243-2.246C13.423,13.008,14.418,14.017,14.418,15.254"/>
		<path clip-path="url(#SVGID_2_)" fill="none" stroke="#00A3D7" stroke-miterlimit="10" d="M14.418,15.254
			c0,1.237-0.995,2.245-2.235,2.245c-1.248,0-2.243-1.008-2.243-2.245s0.995-2.246,2.243-2.246
			C13.423,13.008,14.418,14.017,14.418,15.254z"/>
		<path clip-path="url(#SVGID_2_)" fill="#FFFFFF" d="M15.021,23.203v-2.679c0-1.58-1.271-2.858-2.838-2.858
			c-1.575,0-2.868,1.279-2.868,2.858v2.679H15.021z"/>
		<path clip-path="url(#SVGID_2_)" fill="none" stroke="#00A3D7" stroke-miterlimit="10" d="M15.021,23.203v-2.679
			c0-1.58-1.271-2.858-2.838-2.858c-1.575,0-2.868,1.279-2.868,2.858v2.679H15.021z"/>
	</g>
	<g>
		<path fill="none" stroke="#6C5294" stroke-miterlimit="10" d="M6.568,17.538c0-3.138,2.541-5.669,5.661-5.669
			c3.135,0,5.668,2.532,5.668,5.669c0,3.12-2.533,5.665-5.668,5.665C9.109,23.203,6.568,20.657,6.568,17.538z"/>
		<path fill="#FFFFFF" d="M34.194,17.538c0-3.138,2.549-5.669,5.668-5.669c3.12,0,5.661,2.532,5.661,5.669
			c0,3.12-2.541,5.665-5.661,5.665C36.743,23.203,34.194,20.657,34.194,17.538"/>
	</g>
	<g>
		<defs>
			<path id="SVGID_3_" d="M34.194,17.538c0,3.12,2.549,5.666,5.668,5.666c3.12,0,5.661-2.546,5.661-5.666
				c0-3.139-2.541-5.669-5.661-5.669C36.743,11.868,34.194,14.398,34.194,17.538"/>
		</defs>
		<clipPath id="SVGID_4_">
			<use xlink:href="#SVGID_3_"  overflow="visible"/>
		</clipPath>
		<path clip-path="url(#SVGID_4_)" fill="#FFFFFF" d="M42.054,15.254c0,1.237-1.012,2.245-2.244,2.245
			c-1.24,0-2.244-1.008-2.244-2.245s1.004-2.246,2.244-2.246C41.042,13.008,42.054,14.017,42.054,15.254"/>
		<path clip-path="url(#SVGID_4_)" fill="none" stroke="#00A3D7" stroke-miterlimit="10" d="M42.054,15.254
			c0,1.237-1.012,2.245-2.244,2.245c-1.24,0-2.244-1.008-2.244-2.245s1.004-2.246,2.244-2.246
			C41.042,13.008,42.054,14.017,42.054,15.254z"/>
		<path clip-path="url(#SVGID_4_)" fill="#FFFFFF" d="M42.663,23.203v-2.679c0-1.58-1.278-2.858-2.854-2.858
			c-1.562,0-2.854,1.279-2.854,2.858v2.679H42.663z"/>
		<path clip-path="url(#SVGID_4_)" fill="none" stroke="#00A3D7" stroke-miterlimit="10" d="M42.663,23.203v-2.679
			c0-1.58-1.278-2.858-2.854-2.858c-1.562,0-2.854,1.279-2.854,2.858v2.679H42.663z"/>
	</g>
	<g>
		<path fill="none" stroke="#593C81" stroke-miterlimit="10" d="M34.194,17.538c0-3.138,2.549-5.669,5.668-5.669
			c3.12,0,5.661,2.532,5.661,5.669c0,3.12-2.541,5.665-5.661,5.665C36.743,23.203,34.194,20.657,34.194,17.538z"/>
	</g>
	<g id="LOGO_CANDIDATURE_1_">
		<circle fill="none" stroke="#CC3333" stroke-miterlimit="10" cx="25.096" cy="24.834" r="24.347"/>
	</g>
</g>
</svg>
