<?xml version="1.0" encoding="utf-8"?>
<!-- Generator: Adobe Illustrator 16.0.0, SVG Export Plug-In . SVG Version: 6.00 Build 0)  -->
<!DOCTYPE svg PUBLIC "-//W3C//DTD SVG 1.1//EN" "http://www.w3.org/Graphics/SVG/1.1/DTD/svg11.dtd">
<svg version="1.1" id="Layer_2" xmlns="http://www.w3.org/2000/svg" xmlns:xlink="http://www.w3.org/1999/xlink" x="0px" y="0px"
	 width="50px" height="50px" viewBox="0 0 50 50" enable-background="new 0 0 50 50" xml:space="preserve">
<g id="PICTO_MOBILITE">
	<g>
		<line fill="none" stroke="#593C81" stroke-miterlimit="10" x1="17.663" y1="24.363" x2="26.186" y2="32.887"/>
		<polyline fill="none" stroke="#593C81" stroke-miterlimit="10" points="26.186,27.635 26.186,32.887 21.389,32.887 		"/>
		<g>
			<path fill="#FFFFFF" d="M14.604,7.248c-3.254,0-5.915,2.562-5.915,5.717c0,1.249,0.428,2.431,1.183,3.419l4.469,5.849
				c0.099,0.132,0.329,0.162,0.46,0.066l0.066-0.066l4.469-5.849c0.754-0.988,1.183-2.17,1.183-3.419
				C20.521,9.81,17.859,7.248,14.604,7.248 M14.145,15.199c-1.249-0.262-2.07-1.447-1.809-2.695
				c0.263-1.248,1.446-2.068,2.697-1.805c0.918,0.195,1.643,0.886,1.805,1.805c0.23,1.249-0.59,2.467-1.805,2.695
				C14.736,15.265,14.441,15.265,14.145,15.199"/>
			<path fill="none" stroke="#FFAE00" stroke-miterlimit="10" d="M14.604,7.248c-3.254,0-5.915,2.562-5.915,5.717
				c0,1.249,0.428,2.431,1.183,3.419l4.469,5.849c0.099,0.132,0.329,0.162,0.46,0.066l0.066-0.066l4.469-5.849
				c0.754-0.988,1.183-2.17,1.183-3.419C20.521,9.81,17.859,7.248,14.604,7.248z M14.145,15.199
				c-1.249-0.262-2.07-1.447-1.809-2.695c0.263-1.248,1.446-2.068,2.697-1.805c0.918,0.195,1.643,0.886,1.805,1.805
				c0.23,1.249-0.59,2.467-1.805,2.695C14.736,15.265,14.441,15.265,14.145,15.199z"/>
			<path fill="#FFFFFF" d="M36.812,27.309c-3.254,0-5.916,2.561-5.916,5.717c0,1.248,0.428,2.434,1.182,3.416l4.471,5.848
				c0.098,0.133,0.328,0.166,0.461,0.066c0.031-0.031,0.031-0.031,0.064-0.066l4.471-5.848c0.754-0.982,1.182-2.168,1.182-3.416
				C42.727,29.869,40.066,27.309,36.812,27.309 M36.35,35.26c-1.248-0.262-2.068-1.447-1.805-2.695
				c0.262-1.248,1.447-2.068,2.695-1.805c0.918,0.195,1.643,0.887,1.807,1.805c0.229,1.248-0.592,2.467-1.807,2.695
				C36.943,35.326,36.646,35.326,36.35,35.26"/>
			<path fill="none" stroke="#593C81" stroke-miterlimit="10" d="M36.812,27.309c-3.254,0-5.916,2.561-5.916,5.717
				c0,1.248,0.428,2.434,1.182,3.416l4.471,5.848c0.098,0.133,0.328,0.166,0.461,0.066c0.031-0.031,0.031-0.031,0.064-0.066
				l4.471-5.848c0.754-0.982,1.182-2.168,1.182-3.416C42.727,29.869,40.066,27.309,36.812,27.309z M36.35,35.26
				c-1.248-0.262-2.068-1.447-1.805-2.695c0.262-1.248,1.447-2.068,2.695-1.805c0.918,0.195,1.643,0.887,1.807,1.805
				c0.229,1.248-0.592,2.467-1.807,2.695C36.943,35.326,36.646,35.326,36.35,35.26z"/>
			<line fill="none" stroke="#FFAE00" stroke-miterlimit="10" x1="32.158" y1="25.625" x2="23.636" y2="17.103"/>
			<polyline fill="none" stroke="#FFAE00" stroke-miterlimit="10" points="23.636,22.355 23.636,17.103 28.432,17.103 			"/>
		</g>
	</g>
	<circle fill="none" stroke="#CC3333" stroke-miterlimit="10" cx="25" cy="25.001" r="24.312"/>
</g>
</svg>
