<?xml version="1.0" encoding="utf-8"?>
<!-- Generator: Adobe Illustrator 16.0.0, SVG Export Plug-In . SVG Version: 6.00 Build 0)  -->
<!DOCTYPE svg PUBLIC "-//W3C//DTD SVG 1.1//EN" "http://www.w3.org/Graphics/SVG/1.1/DTD/svg11.dtd">
<svg version="1.1" id="Layer_1" xmlns="http://www.w3.org/2000/svg" xmlns:xlink="http://www.w3.org/1999/xlink" x="0px" y="0px"
	 width="50px" height="50px" viewBox="0 0 50 50" enable-background="new 0 0 50 50" xml:space="preserve">
<g id="LOGO_PRESELECTION">
	<line fill="none" stroke="#593C81" stroke-width="1.5" stroke-miterlimit="10" x1="41.922" y1="38.236" x2="25.64" y2="20.324"/>
	<g>
		<path fill="none" stroke="#00A3D7" stroke-miterlimit="10" d="M14.241,12.083c-4.612,0-8.352,3.744-8.352,8.354
			c0,2.93,1.501,5.518,3.787,6.996v-2.333c0-2.488,1.993-4.504,4.471-4.504c-1.865,0-3.378-1.514-3.378-3.379
			c0-1.858,1.513-3.367,3.378-3.367c1.865,0,3.378,1.508,3.378,3.367c0,1.865-1.513,3.379-3.378,3.379
			c2.484,0,4.484,2.016,4.484,4.504v2.432c2.378-1.451,3.961-4.076,3.961-7.095C22.593,15.826,18.86,12.083,14.241,12.083z"/>
		<path fill="none" stroke="#00A3D7" stroke-miterlimit="10" d="M5.888,20.437c0-4.61,3.741-8.354,8.353-8.354
			c4.618,0,8.354,3.743,8.354,8.354c0,4.638-3.736,8.36-8.354,8.36C9.629,28.797,5.888,25.075,5.888,20.437z"/>
		<path fill="#FFFFFF" d="M37.041,20.324c0,6.299-5.103,11.401-11.401,11.401c-6.293,0-11.398-5.102-11.398-11.401
			c0-6.299,5.105-11.405,11.398-11.405C31.938,8.918,37.041,14.025,37.041,20.324"/>
		<path fill="none" stroke="#593C81" stroke-miterlimit="10" d="M37.041,20.324c0,6.299-5.103,11.401-11.401,11.401
			c-6.293,0-11.398-5.102-11.398-11.401c0-6.299,5.105-11.405,11.398-11.405C31.938,8.918,37.041,14.025,37.041,20.324z"/>
	</g>
	<g>
		<path fill="none" stroke="#00A3D7" stroke-miterlimit="10" d="M21.542,9.685c-4.263,1.636-7.3,5.784-7.3,10.639
			c0,4.751,2.918,8.825,7.07,10.53c3.167-2.479,5.208-6.343,5.208-10.67C26.52,15.95,24.584,12.172,21.542,9.685z"/>
		<path fill="none" stroke="#00A3D7" stroke-miterlimit="10" d="M17.159,12.712c-1.815,2.023-2.918,4.681-2.918,7.612
			c0,0.916,0.117,1.795,0.318,2.668c2.776-0.416,4.902-2.8,4.902-5.688C19.461,15.422,18.551,13.754,17.159,12.712z"/>
		<path fill="none" stroke="#593C81" stroke-miterlimit="10" d="M37.041,20.324c0,6.299-5.103,11.401-11.401,11.401
			c-6.293,0-11.398-5.102-11.398-11.401c0-6.299,5.105-11.405,11.398-11.405C31.938,8.918,37.041,14.025,37.041,20.324z"/>
	</g>
	<g id="LOGO_CANDIDATURE_2_">
		<circle fill="none" stroke="#CC3333" stroke-miterlimit="10" cx="25.096" cy="24.834" r="24.347"/>
	</g>
</g>
</svg>
